<svg xmlns="http://www.w3.org/2000/svg" viewBox="0 0 141 97"><defs><style>.a{fill:#956441;}</style></defs><title>Icones</title><path class="a" d="M59.36,21.75a5.92,5.92,0,0,0-5.31-3.22H41.21c-2.19,0-3.37,1.71-3.37,3.9V43.19H33.27c-2.74,0-4.53,2.28-4.53,5V65.69c1.3-2.87,4.61-4.57,8.18-4.57a9.71,9.71,0,0,1,9.54,9.32H65.18a9.89,9.89,0,0,1,9.76-9.32,9.66,9.66,0,0,1,5,1.29ZM66.87,51H44.44c-.56,0-1.42-.2-1.42-.74V25.57c0-.55.86-.56,1.42-.56h9.77c.38,0,.71,0,.88.32L67.76,49.76C68.09,50.42,67.62,51,66.87,51Z"/><path class="a" d="M36.71,62.89a7.79,7.79,0,1,0,7.79,7.79A7.79,7.79,0,0,0,36.71,62.89Zm0,11.69a3.9,3.9,0,1,1,3.9-3.9A3.9,3.9,0,0,1,36.71,74.58Z"/><path class="a" d="M103.69,66.06v4h-19a9.77,9.77,0,0,0-4.79-7.75V22.42h4V66.06h19.84Z"/><path class="a" d="M74.94,62.89a7.79,7.79,0,1,0,7.79,7.79A7.79,7.79,0,0,0,74.94,62.89Zm0,11.69a3.9,3.9,0,1,1,3.9-3.9A3.9,3.9,0,0,1,74.94,74.58Z"/><path class="a" d="M108.51,33.3h-6.67v6.85H96.21V33.3H89.5A3.74,3.74,0,0,0,85.76,37V60.43a3.74,3.74,0,0,0,3.74,3.74h19a3.74,3.74,0,0,0,3.74-3.74V37A3.74,3.74,0,0,0,108.51,33.3Z"/></svg>