<svg xmlns="http://www.w3.org/2000/svg" viewBox="0 0 141 97"><defs><style>.a{fill:#8BB42B;}</style></defs><title>Icones</title><path class="a" d="M109.18,75.24,92.3,46,75.42,16.76c-2.72-4.71-7.12-4.71-9.84,0L48.7,46,31.82,75.24c-2.72,4.71-.51,8.52,4.92,8.52h67.52C109.7,83.77,111.9,80,109.18,75.24Zm-2.75,4.61a4.28,4.28,0,0,1-2.17.44H36.74a4.28,4.28,0,0,1-2.17-.44.94.94,0,0,1-.45-.79,4.28,4.28,0,0,1,.7-2.1L68.57,18.48A4.26,4.26,0,0,1,70,16.82a.94.94,0,0,1,.91,0,4.27,4.27,0,0,1,1.47,1.66L106.19,77a4.27,4.27,0,0,1,.7,2.1A1,1,0,0,1,106.44,79.85Z"/><path class="a" d="M104.57,77.9,70.8,19.42a5.47,5.47,0,0,0-.3-.47,5.45,5.45,0,0,0-.3.47L36.44,77.9a4.88,4.88,0,0,0-.25.49,4.86,4.86,0,0,0,.56,0h67.52a4.85,4.85,0,0,0,.56,0A5.11,5.11,0,0,0,104.57,77.9ZM78.89,44l-6.37,9.13h4.79A.83.83,0,0,1,78,54.36L67.39,73a.83.83,0,0,1-1.53-.57l2.73-13.67H61.82A.82.82,0,0,1,61,57.75l4.31-14.46a.83.83,0,0,1,.79-.59H78.21a.83.83,0,0,1,.68,1.3Z"/></svg>