<svg xmlns="http://www.w3.org/2000/svg" viewBox="0 0 141 97"><defs><style>.a{fill:#C06096;}</style></defs><title>Icones</title><path class="a" d="M62.51,49.9V70.27a48.88,48.88,0,0,1-7.48.57,48.61,48.61,0,0,1-7.48-.56V49.9c0-.25.13-6.29,7.48-6.29S62.51,49.64,62.51,49.9ZM50.5,17s0,1.23,0,2.74h1.23V10.3h1.77v9.41h6.1c0-1.52,0-2.74,0-2.74h0V9.27H60V5.62h-.47V4.28H53.48V5.63h-.37v3.5H51.25V5.63h.46V4.28H50.5V5.62H50V9.27h.47ZM65.07,31.13c1.81,2.28,2.35,4.43,2.35,9.2V89.47c0,1.79-5.55,3.25-12.39,3.25s-12.39-1.45-12.39-3.25V40.33c0-4.77.54-6.92,2.35-9.2,2.29-2.88,5.32-4.37,5.4-6.54,0-.7,0-1.76.06-2.86h1.26v2.73a7.92,7.92,0,0,1-2.29,5.22l-.24.23C46.45,32.5,44.3,34.54,44.3,40.4V89.68l1.77.69v-50c0-5.1,1.63-6.65,4.33-9.2l.24-.23a9.68,9.68,0,0,0,2.84-6.51V21.73H59.6c0,1.1,0,2.15.06,2.86C59.74,26.76,62.78,28.25,65.07,31.13ZM63.61,49.71s0-7.36-8.58-7.36-8.58,7.36-8.58,7.36V71.36a47.05,47.05,0,0,0,8.58.72,48.09,48.09,0,0,0,8.58-.72ZM89.87,76.45V90.71h5.93v.74H82.73v-.74h5.93V76.45h0s0-3.63-.07-5.06-4.31-2.57-6-4.34a7.26,7.26,0,0,1-2.41-6.11c.21-3.81,2.54-15.15,2.54-15.15H95.8s2.33,11.34,2.54,15.15A7.15,7.15,0,0,1,95.94,67c-1.7,1.76-5.94,2.9-6,4.34S89.87,76.45,89.87,76.45Zm6.61-20-1.31-9.91H83.41L82,56.48h.93c-.66,9.22,1.53,10.17,4.69,11.6-2.9-2.28-3.32-7.12-2.95-11.6Z"/></svg>