<?xml version="1.0" encoding="utf-8"?>
<!-- Generator: Adobe Illustrator 21.0.0, SVG Export Plug-In . SVG Version: 6.00 Build 0)  -->
<svg version="1.1" id="Camada_1" xmlns="http://www.w3.org/2000/svg" xmlns:xlink="http://www.w3.org/1999/xlink" x="0px" y="0px"
	 viewBox="0 0 34.7 36.4" style="enable-background:new 0 0 34.7 36.4;" xml:space="preserve">
<style type="text/css">
	.st0{opacity:0.3;fill:#FFFFFF;}
	.st1{opacity:0.5;fill:url(#SVGID_1_);}
	.st2{fill:none;}
	.st3{opacity:0.8;fill:url(#SVGID_8_);}
	.st4{opacity:0.5;fill:url(#SVGID_9_);}
	.st5{fill:none;stroke:#FFFFFF;stroke-width:7;stroke-miterlimit:10;}
	.st6{clip-path:url(#SVGID_11_);}
	.st7{clip-path:url(#SVGID_13_);}
	.st8{clip-path:url(#SVGID_15_);}
	.st9{clip-path:url(#SVGID_17_);}
	.st10{clip-path:url(#SVGID_19_);}
	.st11{clip-path:url(#SVGID_21_);}
	.st12{opacity:0.8;fill:url(#SVGID_22_);}
	.st13{opacity:0.5;fill:url(#SVGID_23_);}
	.st14{clip-path:url(#SVGID_25_);}
	.st15{opacity:0.8;fill:url(#SVGID_26_);}
	.st16{opacity:0.5;fill:url(#SVGID_27_);}
	.st17{opacity:0.8;fill:url(#SVGID_28_);}
	.st18{opacity:0.5;fill:url(#SVGID_29_);}
	.st19{opacity:0.8;fill:url(#SVGID_30_);}
	.st20{opacity:0.5;fill:url(#SVGID_31_);}
	.st21{opacity:0.8;fill:url(#SVGID_32_);}
	.st22{opacity:0.5;fill:url(#SVGID_33_);}
	.st23{clip-path:url(#SVGID_35_);}
	.st24{opacity:0.8;fill:url(#SVGID_36_);}
	.st25{opacity:0.5;fill:url(#SVGID_37_);}
	.st26{opacity:0.8;fill:url(#SVGID_38_);}
	.st27{opacity:0.5;fill:url(#SVGID_39_);}
	.st28{opacity:0.8;fill:url(#SVGID_40_);}
	.st29{clip-path:url(#SVGID_60_);}
	.st30{clip-path:url(#SVGID_64_);}
	.st31{clip-path:url(#SVGID_68_);}
	.st32{clip-path:url(#SVGID_72_);}
	.st33{fill:#C0272D;}
	.st34{fill:#66A2C1;}
	.st35{fill:#662D90;}
	.st36{fill:#666666;}
	.st37{clip-path:url(#SVGID_80_);}
	.st38{opacity:0.7;}
	.st39{clip-path:url(#SVGID_82_);}
	.st40{clip-path:url(#SVGID_84_);}
	.st41{opacity:0.57;}
	.st42{clip-path:url(#SVGID_86_);}
	.st43{opacity:0.89;}
	.st44{clip-path:url(#SVGID_88_);}
	.st45{clip-path:url(#SVGID_90_);}
	.st46{opacity:0.94;}
	.st47{opacity:0.85;}
	.st48{clip-path:url(#SVGID_94_);}
	.st49{opacity:0.96;}
	.st50{fill:#4D4D4D;}
	.st51{fill:#FFFFFF;}
</style>
<path class="st51" d="M33.3,28.9L22.9,18.1L33.4,7.6c0.4-0.4,0.7-0.9,1-1.5c0.2-0.5,0.3-1.1,0.3-1.7c0-0.6-0.1-1.1-0.3-1.6
	c-0.2-0.5-0.5-1-1-1.5c-0.4-0.4-0.9-0.8-1.5-1C31.4,0.1,30.8,0,30.3,0c-0.6,0-1.1,0.1-1.6,0.3c-0.5,0.2-1,0.5-1.4,1l-9.9,10.8
	L7.6,1.3c-0.4-0.4-0.9-0.8-1.4-1C5.7,0.1,5.1,0,4.6,0C4,0,3.5,0.1,2.9,0.3c-0.5,0.2-1,0.6-1.5,1C1,1.8,0.7,2.3,0.5,2.8
	C0.2,3.3,0.1,3.9,0.1,4.4c0,0.6,0.1,1.1,0.3,1.7c0.2,0.5,0.5,1,1,1.5L11.8,18L1.3,28.9c-0.4,0.4-0.8,0.9-1,1.5C0.1,30.9,0,31.4,0,32
	s0.1,1.1,0.3,1.7c0.2,0.5,0.5,1,1,1.5c0.4,0.4,0.9,0.8,1.5,1c0.5,0.2,1.1,0.3,1.7,0.3s1.1-0.1,1.7-0.3c0.5-0.2,1-0.6,1.4-1l9.8-11
	l9.8,11c0.4,0.4,0.9,0.8,1.4,1c0.5,0.2,1.1,0.3,1.6,0.3c0.6,0,1.1-0.1,1.7-0.3c0.5-0.2,1-0.6,1.5-1c0.4-0.4,0.7-0.9,1-1.5
	c0.2-0.5,0.3-1.1,0.3-1.6s-0.1-1.1-0.3-1.6C34,29.8,33.7,29.3,33.3,28.9z"/>
</svg>
