<svg id="Camada_1" data-name="Camada 1" xmlns="http://www.w3.org/2000/svg" viewBox="0 0 273.97 466.06"><defs><style>.cls-1{fill:#66a2c1;}.cls-2{fill:#85b5cd;}.cls-3{fill:#264758;}.cls-4{fill:#4d7a91;}.cls-5{fill:#a3c7da;}.cls-6{fill:#c2dae6;}</style></defs><title>russel-hora-mais</title><path class="cls-1" d="M251.85,228.46h-24.6v24.6h-19.4v-24.6h-24.6v-19.4h24.6V184.4h19.4v24.66h24.6Z"/><path class="cls-1" d="M152.55,279.85H111.86v40.69H79.78V279.85H39.08V247.77H79.78V207h32.08v40.79h40.69Z"/><path class="cls-1" d="M241.17,429.89H205v36.17H176.48V429.89H140.31V401.37h36.17V365.12H205v36.26h36.17Z"/><path class="cls-1" d="M87.32,103.55H56v31.32H31.32V103.55H0V78.86H31.32V47.47H56V78.86H87.32Z"/><path class="cls-1" d="M195.67,358.67H159.5v36.17H131V358.67H94.82V330.16H131V293.9H159.5v36.26h36.17Z"/><path class="cls-1" d="M164.75,71.77H128.58v36.17H100.06V71.77H63.89V43.26h36.17V7h28.51V43.26h36.17Z"/><path class="cls-1" d="M250.47,239.46H209.78v40.69H177.7V239.46H137V207.38H177.7V166.59h32.08v40.79h40.69Z"/><path class="cls-1" d="M268,324.28H231.8v36.17H203.29V324.28H167.12V295.76h36.17V259.51H231.8v36.26H268Z"/><path class="cls-2" d="M247.17,423.89H211v36.17H182.48V423.89H146.31V395.37h36.17V359.12H211v36.26h36.17Z"/><path class="cls-3" d="M201.67,352.67H165.5v36.17H137V352.67H100.82V324.16H137V287.9H165.5v36.26h36.17Z"/><path class="cls-3" d="M256.47,233.46H215.78v40.69H183.7V233.46H143V201.38H183.7V160.59h32.08v40.79h40.69Z"/><path class="cls-4" d="M274,318.28H237.8v36.17H209.29V318.28H173.12V289.76h36.17V253.51H237.8v36.26H274Z"/><path class="cls-1" d="M207,161H166.28v40.69H134.2V161H93.51V128.88H134.2V88.09h32.08v40.79H207Z"/><path class="cls-3" d="M93.32,96.55H62v31.32H37.32V96.55H6V71.86H37.32V40.47H62V71.86H93.32Z"/><path class="cls-5" d="M170.75,64.77H134.58v36.17H106.06V64.77H69.89V36.26h36.17V0h28.51V36.26h36.17Z"/><path class="cls-4" d="M213,154H172.28v40.69H140.2V154H99.51V121.88H140.2V81.09h32.08v40.79H213Z"/><path class="cls-6" d="M162.55,270.85H121.86v40.69H89.78V270.85H49.08V238.77H89.78V198h32.08v40.79h40.69Z"/></svg>