<svg id="Camada_1" data-name="Camada 1" xmlns="http://www.w3.org/2000/svg" viewBox="0 0 132.33 135.64"><defs><style>.cls-1{fill:#265b70;}</style></defs><title>iso</title><path class="cls-1" d="M130.31,42.42a18.44,18.44,0,0,0-7-8.39c-9.1-5.78-23-6.19-32.33-1a18.8,18.8,0,0,0-9.52,13.08c-1.89,8.73-1.41,19.11,5.31,25.65,7.84,6.87,19.25,8.39,29.39,5.57a13.09,13.09,0,0,0,3.06-1l.3-.13a20.73,20.73,0,0,0,8.4-6.33C133.11,62.29,133.46,50.94,130.31,42.42ZM113.79,62a5.37,5.37,0,0,1-3.22,4,11,11,0,0,1-9.16-.55C99.24,63.94,99,61.4,98.68,59c-.21-4.74-.55-9.76.77-14.1,1-2.69,3.91-3.38,6.51-3.58,2.73,0,5.38.41,7.07,2.61,1,1.58,1,3.64,1.19,5.5C114.14,53.35,114.49,58,113.79,62Z"/><path class="cls-1" d="M30.86,66.29c-2.31-.14-4.9.06-7.13-.21l.07-24.14.14-.2,6.93-.07c.07-3.92.14-8.12-.07-11.69L4.41,29.9.07,30C0,33.62,0,37.88.07,41.59c2.38.07,4.62,0,6.93.21V65.18l-.07,1L0,66.29c-.15,3.84-.15,7.56,0,11.35H30.86Z"/><path class="cls-1" d="M108.54,82.79A53.73,53.73,0,0,1,97.84,94.2c-.15.21-.57.13-.7-.07-1.76-1.1-3.64-2-5.33-3.09a57.12,57.12,0,0,0,6.09-8.33H95.73a48.62,48.62,0,0,1-5.87,7.5,75.19,75.19,0,0,0-9-3.17l-.35-.26c.49-1.39,1.39-2.69,1.68-4.07H80.27l-1.89,3.72a90,90,0,0,0-12.88-1.65c-.21-.62.07-1.51-.21-2.07H63.48c-.15.83.21,1.45-.21,2.14a80.91,80.91,0,0,0-12.59,1.52l-1.89-3.66a6,6,0,0,0-2,.07l1.75,4.06-.21.2a89,89,0,0,0-9.24,3.24l-.28-.14a54.85,54.85,0,0,1-5.39-6.8c-.35-1.17-1.75-.49-2.52-.63a59.48,59.48,0,0,0,6.15,8.46c-1.89,1.1-3.77,2.33-5.74,3.23A50.44,50.44,0,0,1,20.3,82.79a8.14,8.14,0,0,0-2.24,0,54.88,54.88,0,0,0,21.07,18.77.06.06,0,0,1,.07-.06c.06,0,.2.13.06.2a57.87,57.87,0,0,0,17.64,5.44c21.49,2.82,42-6.33,53.89-24.35A11.39,11.39,0,0,0,108.54,82.79ZM79.36,89l.21-.14a39.11,39.11,0,0,1,8.54,3,43.88,43.88,0,0,1-7.77,6.6c-1.61,1-3.22,2-4.91,2.82l-3-1.3.21-.47A82.53,82.53,0,0,0,79.36,89ZM65.57,86.91a54.83,54.83,0,0,1,11.69,1.38l.07.21a70.4,70.4,0,0,1-7.07,10.66,19.69,19.69,0,0,1-3.5-.41l-1.19-.14C65.43,94.55,65.36,91,65.57,86.91Zm-13.5,1.24A60.82,60.82,0,0,1,63.4,86.91l.07,11.63c-1.47.33-3.08.33-4.48.69a61.52,61.52,0,0,1-7.27-10.81ZM40.8,91.87a46,46,0,0,1,8.54-3l.29.07a107,107,0,0,0,7.06,10.93c-1,.55-2.17.89-3.14,1.44A47.16,47.16,0,0,1,40.8,92.07Zm9,11.76a49.67,49.67,0,0,1-16.38-7.7v-.21a40.06,40.06,0,0,1,5.18-2.89,71.29,71.29,0,0,0,12.6,9.7A5.51,5.51,0,0,1,49.83,103.62Zm26,.89a53.29,53.29,0,0,1-23.09-.13c-.14-.34.35-.41.56-.62,6.51-4.2,16.65-4.2,23,.33C76.49,104.51,75.93,104.38,75.79,104.51Zm6.72-1.92-3.29,1a7.77,7.77,0,0,1-1.54-1.1l.14-.21a62.31,62.31,0,0,0,12.39-9.56,27.63,27.63,0,0,1,5.39,3A47.26,47.26,0,0,1,82.51,102.59Z"/><path class="cls-1" d="M20.16,24.67a64.08,64.08,0,0,1,5.67-6.81,37.24,37.24,0,0,1,5.46-4.61c1.82,1.17,3.85,2.14,5.6,3.24a60.69,60.69,0,0,0-6,8.24,4.15,4.15,0,0,0,2.1,0,53.17,53.17,0,0,1,5.88-7.35c3,1.1,5.95,2.27,9,3.1l.27.27-1.75,4a6.31,6.31,0,0,0,2,0c.63-1.16,1.11-2.47,1.82-3.64a68.49,68.49,0,0,0,12.67,1.51c.56.49.14,1.52.35,2.13h1.89c.21-.68-.07-1.44.21-2.05A67.16,67.16,0,0,0,77.62,21.1l.34.07,1.89,3.57a4.41,4.41,0,0,0,2-.14l-1.75-4,.15-.14a76.62,76.62,0,0,0,9.3-3.3,64.36,64.36,0,0,1,6,7.56,6.51,6.51,0,0,0,2.1-.14,28,28,0,0,0-3-4.33,30,30,0,0,0-3.08-3.7v-.35l4.9-2.81.71-.27A51,51,0,0,1,108.19,24.6c.84,0,1.54.29,2.24-.06A55.4,55.4,0,0,0,68.87.2L68.8.33,68.66.2A32.1,32.1,0,0,0,62.42.12,16.47,16.47,0,0,0,59.83.2,54.86,54.86,0,0,0,17.91,24.74,7.93,7.93,0,0,0,20.16,24.67Zm29-6-.28.06a56.06,56.06,0,0,1-8.33-2.82l.13-.41a55,55,0,0,1,12.39-9c1.05.41,2.1.76,3.15,1.24l-.21.54A88.07,88.07,0,0,0,49.2,18.63Zm13.92,1.85a25.31,25.31,0,0,1-5.67-.21,37.51,37.51,0,0,1-6.15-1.1A61.31,61.31,0,0,1,58.58,8.39L63.06,9C63.26,12.56,63.12,16.7,63.12,20.48Zm2.17.07c-.14-3.66-.07-7.71,0-11.49l4.34-.62a59.3,59.3,0,0,1,7.21,10.72A49.67,49.67,0,0,1,65.29,20.55Zm22.33-4.82a45.72,45.72,0,0,1-8.54,2.89A116.41,116.41,0,0,0,71.87,7.82c1-.54,2.18-1,3.22-1.5a49.41,49.41,0,0,1,12.67,9.2ZM78.66,4a49.9,49.9,0,0,1,16.45,7.7l-.14.27-4.83,2.68h-.35A61,61,0,0,0,77.33,5.14C77.47,4.66,78.17,4.31,78.66,4Zm-2.8-.69v.14c-6.09,4.39-16,4.81-22.39.75-.36-.27-1.05-.41-1.13-.89A52.4,52.4,0,0,1,75.86,3.29ZM33.17,11.82A50.29,50.29,0,0,1,47.66,4.53c.21-.21.35-.41.63-.41v.14c.56.13,1-.49,1.47-.08s.91.63,1.26,1a70.86,70.86,0,0,0-12.53,9.69,23,23,0,0,1-5.32-2.88Z"/><path class="cls-1" d="M63.2,66.82c-6.58,1.79-13.72.43-18.48-4.53-.55-.69-.91-1.51-1.47-2.19l-9.44.07c-.15,5.57-.21,12,0,17.47l10.49-.07.14-3.3c1.19.55,2.38,1.24,3.57,1.85,7.28,3,16.65,3.72,23.86,0a14.13,14.13,0,0,0,7.28-14.45c-.77-5.84-6.37-11.14-12-12.58L50.18,44.21l-1.26-.62a1.92,1.92,0,0,1-.77-1.85c1.33-2.27,4.41-1.58,6.72-1.52,4.9.69,9.94,2.34,12.81,6.81,3.08,0,6.65.06,10-.07.14-5.64-.06-10.58-.14-16.29-3.15-.07-7-.07-10.14.07-.14.82.13,2-.21,2.81L64,31.82c-7.7-3.23-18.48-3.57-25.47,1.45-4.55,3.3-5.95,9.22-4.76,14.44.91,4.95,5.67,8.59,10.22,10.31,6.23,2.2,12.73,3.79,19,5.92.63.28,1.46.9,1.33,1.66S63.68,66.56,63.2,66.82Z"/><path class="cls-1" d="M46.61,135.64a17.24,17.24,0,0,1-3.92-.4c-.32-.08-.44-.2-.44-.44v-1.73c0-.28.14-.42.36-.42h.1a25.14,25.14,0,0,0,3.63.28c1.75,0,2.49-.69,2.49-2.91v-.14a13.57,13.57,0,0,1-2.35.24c-2.68,0-4.91-1.14-4.91-4.44v-.14c0-3,1.83-5.05,5.25-5.05,3.21,0,5.33,1.89,5.33,5.85v3C52.14,133.89,50,135.64,46.61,135.64Zm2.21-9.29c0-2.7-.86-3.26-2-3.26s-1.93.51-1.93,2.46v.14c0,1.63,1,2.07,2.13,2.07a13,13,0,0,0,1.81-.2Z"/><path class="cls-1" d="M59.47,135.64c-3.38,0-5.36-1.93-5.36-6.7v-1.71c0-4.78,2-6.73,5.36-6.73s5.37,2,5.37,6.73v1.71C64.84,133.71,62.85,135.64,59.47,135.64Zm2-8.41c0-3.14-.85-3.9-2-3.9s-1.95.76-1.95,3.9v1.71c0,3.14.83,3.87,1.95,3.87s2-.73,2-3.87Z"/><path class="cls-1" d="M72.1,135.64c-3.38,0-5.35-1.93-5.35-6.7v-1.71c0-4.78,2-6.73,5.35-6.73s5.37,2,5.37,6.73v1.71C77.47,133.71,75.49,135.64,72.1,135.64Zm2-8.41c0-3.14-.86-3.9-2-3.9s-1.95.76-1.95,3.9v1.71c0,3.14.84,3.87,1.95,3.87s2-.73,2-3.87Z"/><path class="cls-1" d="M83.38,132.63v-8.55l-2.59,1.12a.71.71,0,0,1-.24.05c-.14,0-.22-.1-.22-.26v-2.27a.28.28,0,0,1,.2-.28l3.6-1.69a1.11,1.11,0,0,1,.46-.08h1.79a.37.37,0,0,1,.38.38v11.58h2.64a.38.38,0,0,1,.4.38v2a.41.41,0,0,1-.4.4H80.74a.41.41,0,0,1-.4-.4v-2a.38.38,0,0,1,.4-.38Z"/></svg>