<?xml version="1.0" encoding="utf-8"?>
<!-- Generator: Adobe Illustrator 21.0.0, SVG Export Plug-In . SVG Version: 6.00 Build 0)  -->
<svg version="1.1" id="Camada_1" xmlns="http://www.w3.org/2000/svg" xmlns:xlink="http://www.w3.org/1999/xlink" x="0px" y="0px"
	 viewBox="0 0 93 114" style="enable-background:new 0 0 93 114;" xml:space="preserve">
<style type="text/css">
	.st0{fill:#FFFFFF;}
	.st1{fill:#FFFFFF;stroke:#FFFFFF;stroke-width:2.5134;stroke-miterlimit:10;}
	.st2{fill:none;stroke:#FFFFFF;stroke-width:2.5134;stroke-miterlimit:10;}
	.st3{fill:none;stroke:#FFFFFF;stroke-width:1.7051;stroke-miterlimit:10;}
	.st4{fill-rule:evenodd;clip-rule:evenodd;fill:#FFFFFF;}
	.st5{fill:#33855F;}
	.st6{fill:#E5742D;}
	.st7{fill:#66A2C1;}
	.st8{fill:#7F6486;}
	.st9{fill:#956441;}
	.st10{fill:#FF5507;}
	.st11{fill:#8BB42B;}
	.st12{fill-rule:evenodd;clip-rule:evenodd;fill:#83AE5D;}
	.st13{fill:#CC362D;}
	.st14{fill:#EDA64D;}
	.st15{fill:none;stroke:#EDA64D;stroke-width:2.53;stroke-miterlimit:10;}
</style>
<g style="opacity:0.3;">
	<g>
		<path class="st0" d="M29.6,80c-0.5,0-1-0.2-1.4-0.6C20.6,71.8,12.8,64,5.1,56.4c-0.8-0.8-0.8-2,0-2.7c2.1-2.1,4.2-4.2,6.3-6.4
			l1.4-1.4c0.4-0.4,0.9-0.6,1.4-0.6c0,0,0,0,0,0c0.5,0,1,0.2,1.4,0.6l14,14.1c4.7-4.7,9.3-9.3,13.8-13.8L54.5,35
			c0.4-0.4,0.9-0.6,1.4-0.6c0,0,0,0,0,0c0.5,0,1,0.2,1.4,0.6c2.7,2.7,5.2,5.3,7.7,7.8c0.7,0.8,0.7,2,0,2.7
			C53.8,56.7,42.4,68.1,31,79.5C30.6,79.9,30.1,80,29.6,80z M9.2,55c6.8,6.8,13.6,13.6,20.4,20.4c10.5-10.5,20.9-20.9,31.2-31.2
			c-1.6-1.6-3.3-3.3-5-5.1l-9.7,9.7c-5,5-10.1,10.1-15.2,15.2c-0.4,0.4-0.9,0.6-1.4,0.6c0,0,0,0,0,0c-0.5,0-1-0.2-1.4-0.6L14.3,50
			l0,0C12.5,51.7,10.9,53.3,9.2,55z"/>
	</g>
	<g>
		<path class="st0" d="M35.2,103.2c-0.7,0-1.3-0.3-1.7-0.9c-0.5-0.9-0.3-2.1,0.7-2.6c9-5.4,14.7-11.3,17.9-15.2
			c3.5-4.3,4.8-7.4,4.9-7.4c0.4-1,1.6-1.4,2.5-1c1,0.4,1.4,1.6,1,2.5c-0.2,0.5-6,13.5-24.3,24.5C35.9,103.1,35.6,103.2,35.2,103.2z"
			/>
	</g>
	<g>
		<path class="st0" d="M62.3,71.2c-0.2,0-0.3,0-0.5-0.1c-1-0.3-1.6-1.3-1.4-2.4l1.6-5.8c0.3-1,1.3-1.6,2.4-1.4
			c1,0.3,1.6,1.3,1.4,2.4l-1.6,5.8C64,70.7,63.2,71.2,62.3,71.2z"/>
	</g>
	<path class="st0" d="M77.5,15.7c-0.1-0.7-0.5-1.3-1.2-1.6c-0.6-0.3-1.4-0.2-1.9,0.2C68.6,18.7,58,16.5,50,13.8
		c-8.9-3-16.5-7.2-16.5-7.3c-0.6-0.3-1.3-0.3-1.9,0c-0.1,0-7.6,4.3-16.5,7.3c-4.5,1.5-9.9,2.9-14.8,3v3.9c4.6-0.1,9.9-1.2,16.1-3.2
		c7.5-2.5,13.9-5.8,16.2-7c2.3,1.2,8.7,4.5,16.2,7c10.9,3.7,19.4,4.2,25.2,1.6c0.3,4.9,0.8,15.2-0.3,26.9
		C72.3,60.9,68.1,81.2,56,93.6c-4.8,4.9-19.4,15.5-23.4,18.3c-4-2.8-18.6-13.4-23.4-18.3c-3.6-3.7-6.5-8.1-8.9-12.8v7.9
		c1.9,2.9,3.9,5.4,6.1,7.7c3.1,3.1,9.7,8.3,14.8,12.1c3,2.2,5.6,4.1,7.2,5.3c0.4,0.3,0.7,0.5,1,0.7h6.4c0.3-0.2,0.7-0.5,1-0.7
		c1.7-1.2,4.3-3.1,7.2-5.3c5-3.8,11.7-8.9,14.8-12.1c5.7-5.9,10.3-13.8,13.5-23.5c2.6-7.7,4.3-16.6,5.2-26.4
		C79,29.6,77.6,16.3,77.5,15.7z M32.6,112.3C32.6,112.3,32.6,112.3,32.6,112.3C32.6,112.3,32.6,112.3,32.6,112.3
		C32.6,112.3,32.6,112.3,32.6,112.3C32.6,112.3,32.6,112.3,32.6,112.3c0.1,0,0.1,0,0.2,0C32.7,112.3,32.6,112.3,32.6,112.3z"/>
</g>
</svg>
