<?xml version="1.0" encoding="utf-8"?>
<!-- Generator: Adobe Illustrator 21.0.0, SVG Export Plug-In . SVG Version: 6.00 Build 0)  -->
<svg version="1.1" id="Camada_1" xmlns="http://www.w3.org/2000/svg" xmlns:xlink="http://www.w3.org/1999/xlink" x="0px" y="0px"
	 viewBox="0 0 93 114" style="enable-background:new 0 0 93 114;" xml:space="preserve">
<style type="text/css">
	.st0{fill:#FFFFFF;}
	.st1{fill:#FFFFFF;stroke:#FFFFFF;stroke-width:2.5134;stroke-miterlimit:10;}
	.st2{fill:none;stroke:#FFFFFF;stroke-width:2.5134;stroke-miterlimit:10;}
	.st3{fill:none;stroke:#FFFFFF;stroke-width:1.7051;stroke-miterlimit:10;}
	.st4{fill-rule:evenodd;clip-rule:evenodd;fill:#FFFFFF;}
	.st5{fill:#33855F;}
	.st6{fill:#E5742D;}
	.st7{fill:#66A2C1;}
	.st8{fill:#7F6486;}
	.st9{fill:#956441;}
	.st10{fill:#FF5507;}
	.st11{fill:#8BB42B;}
	.st12{fill-rule:evenodd;clip-rule:evenodd;fill:#83AE5D;}
	.st13{fill:#CC362D;}
	.st14{fill:#EDA64D;}
	.st15{fill:none;stroke:#EDA64D;stroke-width:2.53;stroke-miterlimit:10;}
</style>
<g style="opacity:0.3;">
	<path class="st0" d="M87.2,5.3h-87v3.9h86V76h-86v3.9h86v11.8h-86v3.9h8.6v12H2.3c-0.9,0-1.7,0.5-2.2,1.2v5.6h3.4v-2.9h42.7v2.9
		h3.9v-4.2c0-1.5-1.2-2.6-2.6-2.6H41v-12h46.1c1.5,0,2.8-1.3,2.8-2.8V8.1C90,6.6,88.7,5.3,87.2,5.3z M37.2,107.6H12.6v-12h24.6
		V107.6z"/>
	<path class="st0" d="M28.7,86c0-2.1-1.7-3.8-3.8-3.8c-2.1,0-3.8,1.7-3.8,3.8c0,2.1,1.7,3.8,3.8,3.8C27,89.8,28.7,88.1,28.7,86z
		 M24.9,86L24.9,86L24.9,86C24.9,85.9,24.9,85.9,24.9,86C24.9,85.9,24.9,85.9,24.9,86l1.9,0L24.9,86C24.9,86,24.9,86,24.9,86
		C24.9,86,24.9,86,24.9,86z"/>
	<path class="st0" d="M28.9,34.8c1.1,0,1.9-0.9,1.9-1.9c0-1.1-0.9-1.9-1.9-1.9H6.2v20H43V31l7.5-3.1c1-0.4,1.5-1.5,1-2.5
		c-0.4-1-1.5-1.5-2.5-1l-9.8,4.1v18.6H10.1V34.8H28.9z"/>
	<path class="st0" d="M7,57.4c0,2.1,1.7,3.8,3.8,3.8c2.1,0,3.8-1.7,3.8-3.8c0-2.1-1.7-3.8-3.8-3.8C8.7,53.5,7,55.2,7,57.4z
		 M10.9,57.4l1.9,0L10.9,57.4C10.9,57.4,10.8,57.4,10.9,57.4C10.8,57.4,10.8,57.4,10.9,57.4L10.9,57.4L10.9,57.4
		C10.8,57.3,10.8,57.3,10.9,57.4C10.8,57.3,10.9,57.3,10.9,57.4z"/>
	<path class="st0" d="M33.9,57.4c0,2.1,1.7,3.8,3.8,3.8s3.8-1.7,3.8-3.8c0-2.1-1.7-3.8-3.8-3.8S33.9,55.2,33.9,57.4z M37.7,57.4
		l1.9,0L37.7,57.4C37.7,57.4,37.7,57.4,37.7,57.4C37.7,57.4,37.7,57.4,37.7,57.4L37.7,57.4L37.7,57.4C37.7,57.3,37.7,57.3,37.7,57.4
		C37.7,57.3,37.7,57.3,37.7,57.4z"/>
</g>
</svg>
