<?xml version="1.0" encoding="utf-8"?>
<!-- Generator: Adobe Illustrator 21.0.0, SVG Export Plug-In . SVG Version: 6.00 Build 0)  -->
<svg version="1.1" id="Camada_1" xmlns="http://www.w3.org/2000/svg" xmlns:xlink="http://www.w3.org/1999/xlink" x="0px" y="0px"
	 viewBox="0 0 92.3 113.8" style="enable-background:new 0 0 92.3 113.8;" xml:space="preserve">
<style type="text/css">
	.st0{fill:#FFFFFF;}
	.st1{fill:#FFFFFF;stroke:#FFFFFF;stroke-width:2.5134;stroke-miterlimit:10;}
	.st2{fill:none;stroke:#FFFFFF;stroke-width:2.5134;stroke-miterlimit:10;}
	.st3{fill:none;stroke:#FFFFFF;stroke-width:1.7051;stroke-miterlimit:10;}
	.st4{fill-rule:evenodd;clip-rule:evenodd;fill:#FFFFFF;}
	.st5{fill:#33855F;}
	.st6{fill:#E5742D;}
	.st7{fill:#66A2C1;}
	.st8{fill:#7F6486;}
	.st9{fill:#956441;}
	.st10{fill:#FF5507;}
	.st11{fill:#8BB42B;}
	.st12{fill-rule:evenodd;clip-rule:evenodd;fill:#83AE5D;}
	.st13{fill:#CC362D;}
	.st14{fill:#EDA64D;}
	.st15{fill:none;stroke:#EDA64D;stroke-width:2.53;stroke-miterlimit:10;}
</style>
<g style="opacity:0.3;">
	<path class="st0" d="M71.7,56.2c-1.4-9.9-5.9-18.9-12.8-26l3.7-4l2.5,2.3c0.4,0.3,0.8,0.5,1.3,0.5c0.5,0,1-0.2,1.4-0.6
		c0.7-0.8,0.7-2-0.1-2.7l-7.9-7.2c-0.8-0.7-2-0.7-2.7,0.1c-0.7,0.8-0.7,2,0.1,2.7l2.5,2.3l-3.6,4c-0.9-0.8-1.8-1.5-2.8-2.3
		c-7.7-5.7-16.7-8.9-26.1-9.3V6.9h5.3c1.1,0,1.9-0.9,1.9-1.9c0-1.1-0.9-1.9-1.9-1.9H18.1c-1.1,0-1.9,0.9-1.9,1.9
		c0,1.1,0.9,1.9,1.9,1.9h5.2V16c-1.6,0.1-3.2,0.2-4.8,0.5c-6.6,1-12.9,3.3-18.4,6.8V28c5.6-4,12.1-6.7,19-7.7
		c23.5-3.4,45.4,12.9,48.8,36.4c1.7,11.4-1.2,22.7-8.1,32c-5.9,7.9-14.1,13.4-23.5,15.9c-1.6,0.4-3.2,0.7-4.8,1
		c-11.2,1.6-22.3-1.1-31.4-7.7v4.7c9.5,6.1,20.7,8.5,31.9,6.8c1.8-0.3,3.5-0.6,5.3-1.1c10.2-2.7,19.2-8.7,25.6-17.3
		C70.4,80.9,73.5,68.6,71.7,56.2z"/>
	<path class="st0" d="M26.5,61.4c-0.7-0.8-2-0.8-2.7,0c-0.8,0.7-0.8,2,0,2.7l11,11.3c0.4,0.4,0.9,0.6,1.4,0.6c0.5,0,1-0.2,1.3-0.6
		c0.8-0.7,0.8-2,0-2.7L26.5,61.4z"/>
	<path class="st0" d="M43.1,57c0.3,0,0.5,0,0.8-0.2c1-0.4,1.4-1.5,1-2.5c-3.4-8.1-11.3-13.3-20-13.3c-1.1,0-1.9,0.9-1.9,1.9
		c0,1.1,0.9,1.9,1.9,1.9c7.2,0,13.6,4.3,16.4,10.9C41.7,56.6,42.4,57,43.1,57z"/>
	<path class="st0" d="M16.9,62.9c0,3.8,2.5,7.1,6.2,8c0.2,0,0.3,0.1,0.5,0.1c0.9,0,1.6-0.6,1.9-1.4c0.3-1-0.3-2.1-1.4-2.4
		c-1.9-0.5-3.3-2.3-3.3-4.3c0-2.5,2-4.5,4.5-4.5c2,0,3.8,1.4,4.3,3.3c0.3,1,1.3,1.6,2.4,1.4c1-0.3,1.6-1.3,1.4-2.4
		c-1-3.6-4.3-6.2-8-6.2C20.7,54.6,16.9,58.3,16.9,62.9z"/>
	<path class="st0" d="M25.3,92.7c16.4,0,29.8-13.4,29.8-29.8c0-16.4-13.4-29.8-29.8-29.8c-10.7,0-20,5.6-25.3,14.1v9.9
		C2.7,45.6,13,37,25.3,37c14.3,0,26,11.6,26,26c0,14.3-11.6,26-26,26C13,88.9,2.7,80.3,0,68.7v9.9C5.3,87.1,14.7,92.7,25.3,92.7z"/>
</g>
</svg>
