<?xml version="1.0" encoding="utf-8"?>
<!-- Generator: Adobe Illustrator 21.0.0, SVG Export Plug-In . SVG Version: 6.00 Build 0)  -->
<svg version="1.1" id="Camada_1" xmlns="http://www.w3.org/2000/svg" xmlns:xlink="http://www.w3.org/1999/xlink" x="0px" y="0px"
	 viewBox="0 0 92 114" style="enable-background:new 0 0 92 114;" xml:space="preserve">
<style type="text/css">
	.st0{fill:#FFFFFF;}
	.st1{fill:#FFFFFF;stroke:#FFFFFF;stroke-width:2.5134;stroke-miterlimit:10;}
	.st2{fill:none;stroke:#FFFFFF;stroke-width:2.5134;stroke-miterlimit:10;}
	.st3{fill:none;stroke:#FFFFFF;stroke-width:1.7051;stroke-miterlimit:10;}
	.st4{fill-rule:evenodd;clip-rule:evenodd;fill:#FFFFFF;}
	.st5{fill:#33855F;}
	.st6{fill:#E5742D;}
	.st7{fill:#66A2C1;}
	.st8{fill:#7F6486;}
	.st9{fill:#956441;}
	.st10{fill:#FF5507;}
	.st11{fill:#8BB42B;}
	.st12{fill-rule:evenodd;clip-rule:evenodd;fill:#83AE5D;}
	.st13{fill:#CC362D;}
	.st14{fill:#EDA64D;}
	.st15{fill:none;stroke:#EDA64D;stroke-width:2.53;stroke-miterlimit:10;}
</style>
<g style="opacity:0.3;">
	<path class="st0" d="M44.8,16.8c2.1,5.8,3.6,10.9,4.1,14c0.2,0.9,1,1.6,1.9,1.6c0.1,0,0.2,0,0.3,0c1.1-0.2,1.8-1.2,1.6-2.2
		c-0.8-4.5-3-11.1-4.3-14.7c0-0.1-0.1-0.2-0.1-0.2c-0.5-1.4-1.9-2.4-3.4-2.4H19.4c-1.1,0-1.9,0.9-1.9,1.9c0,1.1,0.9,1.9,1.9,1.9
		L44.8,16.8C44.8,16.8,44.8,16.8,44.8,16.8z"/>
	<g>
		<path class="st0" d="M68.7,17.4H56.2c-1.5-5.1-3.1-8.3-3.2-8.7c-0.7-1.5-2.2-2.4-3.9-2.4H-0.2c0,0-0.1,0-0.1,0v3.9
			c0,0,0.1,0,0.1,0h49.3c0.2,0,0.3,0.1,0.4,0.2c0.1,0.2,1.8,3.8,3.4,9.5l0,0c0,0,0,0,0,0.1l0,0c4.6,12.7,4.3,25.4-0.8,37.9
			c-3.9,9.4-9.2,15.1-9.2,15.2l0,0c-2.3,2.5-4.8,4.8-7.7,6.9h-11c-1.1,0-1.9,0.9-1.9,1.9c0,1.1,0.9,1.9,1.9,1.9h10.2
			c1.3,5.8,6,10.4,11.9,11.5l3.6,0.7c0.2,0,0.4,0.2,0.4,0.4v9.3c0,0.2-0.2,0.4-0.4,0.4H-0.3v3.9h50.2c2.4,0,4.3-1.9,4.3-4.3v-9.3
			c0-2.1-1.5-3.9-3.5-4.2L47,91.6c-4.5-0.8-8.1-4.4-8.9-8.9c2.6-2,4.9-4.1,7.1-6.4h2.7C61.7,76.4,73,63.6,73,48V21.7
			C73,19.3,71,17.4,68.7,17.4z M69.1,48c0,13.3-9.3,24.1-20.8,24.5c2-2.8,4.9-7.2,7.3-12.9c2.4-5.9,3.9-12,4.3-18.1
			c0.4-6.8-0.4-13.5-2.5-20.2h11.2c0.2,0,0.4,0.2,0.4,0.4V48z"/>
		<path class="st0" d="M14.8,82l0.1-1.1l-0.9-0.6c-3-2.2-5.7-4.6-8-7.2c0,0-3.2-3.6-6.4-9.6v7.6c0.3,0.5,0.7,1,1,1.4
			c-0.3,0-0.6,0-1-0.1v3.9c0.5,0,1.1,0.1,1.6,0.1h2.5c2.1,2.3,4.5,4.4,7.1,6.4c-0.8,4.5-4.4,8.1-8.9,8.9L-0.3,92v3.9l2.9-0.5
			C9.2,94.2,14.2,88.7,14.8,82z"/>
	</g>
</g>
</svg>
