<?xml version="1.0" encoding="utf-8"?>
<!-- Generator: Adobe Illustrator 21.0.0, SVG Export Plug-In . SVG Version: 6.00 Build 0)  -->
<svg version="1.1" id="Camada_1" xmlns="http://www.w3.org/2000/svg" xmlns:xlink="http://www.w3.org/1999/xlink" x="0px" y="0px"
	 viewBox="0 0 93 114" style="enable-background:new 0 0 93 114;" xml:space="preserve">
<style type="text/css">
	.st0{fill:#FFFFFF;}
	.st1{fill:#FFFFFF;stroke:#FFFFFF;stroke-width:2.5134;stroke-miterlimit:10;}
	.st2{fill:none;stroke:#FFFFFF;stroke-width:2.5134;stroke-miterlimit:10;}
	.st3{fill:none;stroke:#FFFFFF;stroke-width:1.7051;stroke-miterlimit:10;}
	.st4{fill-rule:evenodd;clip-rule:evenodd;fill:#FFFFFF;}
	.st5{fill:#33855F;}
	.st6{fill:#E5742D;}
	.st7{fill:#66A2C1;}
	.st8{fill:#7F6486;}
	.st9{fill:#956441;}
	.st10{fill:#FF5507;}
	.st11{fill:#8BB42B;}
	.st12{fill-rule:evenodd;clip-rule:evenodd;fill:#83AE5D;}
	.st13{fill:#CC362D;}
	.st14{fill:#EDA64D;}
	.st15{fill:none;stroke:#EDA64D;stroke-width:2.53;stroke-miterlimit:10;}
</style>
<g style="opacity:0.3;">
	<path class="st0" d="M61,67.4c-0.7-0.1-1.4-0.2-2.1-0.2c-3.1,0-6,1.4-7.9,3.7c-0.7,0.8-0.6,2,0.2,2.7c0.4,0.3,0.8,0.4,1.2,0.4
		c0.6,0,1.1-0.2,1.5-0.7c1.2-1.5,3-2.3,5-2.3c0.4,0,0.9,0,1.3,0.1c1,0.2,2.1-0.5,2.3-1.5C62.7,68.6,62.1,67.6,61,67.4z"/>
	<path class="st0" d="M69.7,13.9H0.4v3.9h69.3c5,0,9.1,4.1,9.1,9.1v56.6c0,3.7-2.2,7-5.5,8.4l-2-4.3c2.3-2.8,3.7-6.3,3.7-10.2
		c0-8.8-7.1-15.9-15.9-15.9c-8.8,0-15.9,7.1-15.9,15.9c0,3.7,1.2,7,3.3,9.7l-1.7,5.5H0.4v3.9h43.2l-2.3,7.2c-0.2,0.7,0,1.4,0.5,1.9
		c0.5,0.5,1.2,0.7,1.9,0.5l5.8-1.6c0.2-0.1,0.4,0,0.5,0.2l3.8,4.7c0.4,0.5,0.9,0.7,1.5,0.7c0.1,0,0.2,0,0.4,0
		c0.7-0.1,1.3-0.6,1.5-1.3l2.3-7.3L63,109c0.3,0.6,0.9,1.1,1.6,1.1c0,0,0.1,0,0.1,0c0.7,0,1.3-0.3,1.6-0.9l3.2-5.1
		c0.1-0.2,0.3-0.3,0.5-0.2l6,0.9c0.7,0.1,1.4-0.2,1.8-0.8c0.4-0.6,0.5-1.3,0.2-2l-3.1-6.5c4.7-2,7.8-6.7,7.8-11.9V26.9
		C82.7,19.8,76.9,13.9,69.7,13.9z M54.5,104.2l-1.5-1.9c-1.1-1.4-2.9-1.9-4.6-1.5l-2.4,0.7l2-6.3c0,0,0,0,0,0l1.6-5
		c2.4,1.8,5.3,2.9,8.4,3.1L54.5,104.2z M59.1,89.4c-6.6,0-12-5.4-12-12c0-6.6,5.4-12,12-12s12,5.4,12,12
		C71.1,84.1,65.7,89.4,59.1,89.4z M70.6,100c-1.7-0.3-3.4,0.5-4.4,2l-1.3,2.1l-3.8-8l1-3.1c2.3-0.4,4.4-1.4,6.2-2.7l2.2,4.7
		c0,0,0,0,0,0.1l2.4,5.2L70.6,100z"/>
	<path class="st0" d="M68.2,29H0.4v3.9h67.9c1.1,0,1.9-0.9,1.9-1.9C70.1,29.9,69.3,29,68.2,29z"/>
	<path class="st0" d="M68.2,44.5H0.4v3.9h67.9c1.1,0,1.9-0.9,1.9-1.9C70.1,45.3,69.3,44.5,68.2,44.5z"/>
	<path class="st0" d="M37.7,59.9H0.4v3.9h37.4c1.1,0,1.9-0.9,1.9-1.9C39.7,60.7,38.8,59.9,37.7,59.9z"/>
	<path class="st0" d="M37.7,75.3H0.4v3.9h37.4c1.1,0,1.9-0.9,1.9-1.9C39.7,76.2,38.8,75.3,37.7,75.3z"/>
</g>
</svg>
