<?xml version="1.0" encoding="utf-8"?>
<!-- Generator: Adobe Illustrator 21.0.0, SVG Export Plug-In . SVG Version: 6.00 Build 0)  -->
<svg version="1.1" id="Camada_1" xmlns="http://www.w3.org/2000/svg" xmlns:xlink="http://www.w3.org/1999/xlink" x="0px" y="0px"
	 viewBox="0 0 93 114" style="enable-background:new 0 0 93 114;" xml:space="preserve">
<style type="text/css">
	.st0{fill:#FFFFFF;}
	.st1{fill:#FFFFFF;stroke:#FFFFFF;stroke-width:2.5134;stroke-miterlimit:10;}
	.st2{fill:none;stroke:#FFFFFF;stroke-width:2.5134;stroke-miterlimit:10;}
	.st3{fill:none;stroke:#FFFFFF;stroke-width:1.7051;stroke-miterlimit:10;}
	.st4{fill-rule:evenodd;clip-rule:evenodd;fill:#FFFFFF;}
	.st5{fill:#33855F;}
	.st6{fill:#E5742D;}
	.st7{fill:#66A2C1;}
	.st8{fill:#7F6486;}
	.st9{fill:#956441;}
	.st10{fill:#FF5507;}
	.st11{fill:#8BB42B;}
	.st12{fill-rule:evenodd;clip-rule:evenodd;fill:#83AE5D;}
	.st13{fill:#CC362D;}
	.st14{fill:#EDA64D;}
	.st15{fill:none;stroke:#EDA64D;stroke-width:2.53;stroke-miterlimit:10;}
</style>
<g style="opacity:0.3;">
	<path class="st0" d="M43.9,60.3H28V37.8c0-1.1-0.9-1.9-1.9-1.9c-1.1,0-1.9,0.9-1.9,1.9v24.5v0v0c0,1.1,0.9,1.9,1.9,1.9h17.8
		c1.1,0,1.9-0.9,1.9-1.9C45.8,61.2,45,60.3,43.9,60.3z"/>
	<path class="st0" d="M27.8,79.2c-8.2,0-15.6-4.9-18.8-12.4c-0.4-1-1.5-1.4-2.5-1c-1,0.4-1.4,1.5-1,2.5C9.3,77.2,18,83,27.8,83
		c1.1,0,1.9-0.9,1.9-1.9C29.7,80,28.9,79.2,27.8,79.2z"/>
	<path class="st0" d="M76.9,56.9c-1.1,0-1.9,0.9-1.9,1.9c0,26.1-21.3,47.4-47.4,47.4c-10.1,0-19.5-3.2-27.4-8.7v4.6
		c8.2,5.2,17.6,7.9,27.4,7.9c6.9,0,13.6-1.4,20-4c6.1-2.6,11.6-6.3,16.3-11c4.7-4.7,8.4-10.2,11-16.3c2.7-6.3,4-13,4-20
		C78.8,57.7,77.9,56.9,76.9,56.9z"/>
	<path class="st0" d="M77,24.5c-1.1-0.1-2,0.7-2.1,1.7l-1.1,10.6c-1.2-2.5-2.6-4.9-4.1-7.2c-3.1-4.5-6.8-8.4-11.2-11.7
		c-9-6.8-19.7-10.5-31-10.5c-6.9,0-13.6,1.4-20,4C5,12.7,2.5,14,0.2,15.4v4.7c7.7-5.5,17.2-8.7,27.4-8.7c18.8,0,35.8,11.3,43.3,28.2
		L61,32.5c-0.9-0.6-2.1-0.4-2.7,0.4c-0.6,0.9-0.4,2.1,0.4,2.7l14.6,10.5c0.5,0.7,1.3,1,2.1,0.7c0.2-0.1,0.4-0.1,0.5-0.2
		c0.5-0.3,0.9-0.9,1-1.5l1.9-18.5C78.9,25.5,78.1,24.6,77,24.5z"/>
	<path class="st0" d="M51.4,35.2c-6.3-6.3-14.7-9.8-23.6-9.8c-8.9,0-17.3,3.5-23.6,9.8c-1.5,1.5-2.9,3.1-4,4.9v8.4
		c4.2-11.2,15-19.2,27.6-19.2c16.3,0,29.5,13.2,29.5,29.5c0,16.3-13.2,29.5-29.5,29.5c-12.6,0-23.4-8-27.6-19.2v8.4
		c1.2,1.7,2.5,3.4,4,4.9c6.3,6.3,14.7,9.8,23.6,9.8c8.9,0,17.3-3.5,23.6-9.8c6.3-6.3,9.8-14.7,9.8-23.6
		C61.2,49.9,57.7,41.5,51.4,35.2z"/>
</g>
</svg>
