<svg xmlns="http://www.w3.org/2000/svg" viewBox="0 0 141 97"><defs><style>.a{fill:#fff;}</style></defs><title>Icones</title><path class="a" d="M74.95,55.15l1.69-1.38,2.18,2.65L98.19,40.5l-6-7.29-.84.69a7.82,7.82,0,0,1-9.93-12.09l.84-.69-6-7.29L56.9,29.75l2.18,2.65-1.69,1.38-2.18-2.65L24.33,56.5l6,7.29.84-.69A7.82,7.82,0,1,1,41.1,75.19l-.84.69,6,7.29L77.12,57.8ZM58.27,34.85,60,33.46l3.29,4-1.69,1.38Zm4.17,5.08,1.69-1.38,3.29,4-1.69,1.38ZM66.61,45l1.69-1.38,3.29,4L69.9,49Zm4.17,5.08,1.69-1.38,3.29,4-1.69,1.38Z"/><path class="a" d="M115.58,57.94h1.09V48.5H92.07l-2.66,2.18v1.25h2.18V50.68h22.9v5.13a10,10,0,0,0,0,19.89v5.13H91.59V79.59H89.41v1.25H52.7L50,83h66.62V73.58h-1.09a7.82,7.82,0,0,1,0-15.65Z"/><rect class="a" x="89.41" y="66.45" width="2.18" height="5.19"/><rect class="a" x="89.41" y="73.02" width="2.18" height="5.19"/><rect class="a" x="89.41" y="53.31" width="2.18" height="5.19"/><rect class="a" x="89.41" y="59.88" width="2.18" height="5.19"/></svg>