<svg xmlns="http://www.w3.org/2000/svg" viewBox="0 0 141 97"><defs><style>.a{fill:#fff;}</style></defs><title>Icones</title><path class="a" d="M108,27.7v-.07a6,6,0,0,0-5.94-5.76H62.35a7.36,7.36,0,0,0-6.08-3.1H39.34A6.12,6.12,0,0,0,33,25V71.47a6.51,6.51,0,0,0,6.38,6.76H97.27a7.08,7.08,0,0,0,3.18-.79l.31-.17h.41l.1,0c4.43-1.09,6.65-4.2,6.77-9.52Zm-52.19,1H39V24H55.85Zm47.82,45.6a6.11,6.11,0,0,0,.73-2.85V32.41c0-5.57-5.28-6.14-7.13-6.14H63.34V25a5.6,5.6,0,0,0-.2-1.47h38.94a4.27,4.27,0,0,1,4.25,4.16v40C106.27,70.82,105.41,73,103.67,74.31Z"/></svg>