<svg xmlns="http://www.w3.org/2000/svg" viewBox="0 0 141 97"><defs><style>.a,.b{fill:#fff;}.b,.c{stroke:#fff;stroke-miterlimit:10;stroke-width:2.51px;}.c{fill:none;}</style></defs><title>Icones</title><path class="a" d="M52.48,50.55a33.3,33.3,0,0,1,2.41-12.5H40.43v20.9h7.48a8.91,8.91,0,0,1,4.57-2.86Z"/><path class="a" d="M59.29,30.32c.33-.44.68-.87,1-1.29V14.22H17.6v20.9H56.25A33.69,33.69,0,0,1,59.29,30.32Z"/><rect class="a" x="17.6" y="38.05" width="19.9" height="20.9"/><path class="a" d="M54.69,73.59a8.88,8.88,0,0,1-8.43-11.71H17.6v20.9H60.33V73.59Z"/><rect class="a" x="63.26" y="73.59" width="42.73" height="9.19"/><path class="b" d="M102.75,27.08V41.5a1.38,1.38,0,0,0,2.76,0V29.25Z"/><path class="b" d="M69.09,27.08V41.5a1.38,1.38,0,0,1-2.76,0V29.25Z"/><path class="c" d="M76.91,22.41A29.55,29.55,0,0,0,56.38,50.55v9.16H54.69a5,5,0,0,0,0,10h62.46a5,5,0,0,0,0-10h-1.69V50.55A29.55,29.55,0,0,0,95,22.43"/><path class="a" d="M94.52,19.57,91,51.07H80.86l-3.54-31.5H94.52m2.81-2.51H74.5l.31,2.79,3.54,31.5.25,2.23H93.22l.25-2.23L97,19.85l.31-2.79Z"/><line class="c" x1="56.38" y1="59.71" x2="115.46" y2="59.71"/></svg>