<svg xmlns="http://www.w3.org/2000/svg" viewBox="0 0 141 97"><defs><style>.a{fill:#fff;}</style></defs><title>Icones</title><path class="a" d="M82.58,43.62h0Z"/><path class="a" d="M106.83,69.22a2,2,0,0,0,1.94-1.94V28.59a1.94,1.94,0,1,0-3.89,0V67.28A2,2,0,0,0,106.83,69.22Z"/><path class="a" d="M82,43.14h0Z"/><path class="a" d="M93.3,26.64a2,2,0,0,0-1.94,1.94V67.28a1.94,1.94,0,1,0,3.89,0V28.59A2,2,0,0,0,93.3,26.64Z"/><path class="a" d="M78.95,41.39a4.55,4.55,0,0,1,2.78.95V28.59a1.94,1.94,0,0,0-3.89,0v12.8Z"/><path class="a" d="M82.32,43.37h0Z"/><path class="a" d="M112.67,73.22v-.89h-6.32a3.48,3.48,0,0,0-3.48,3.48v.89h6.32A3.48,3.48,0,0,0,112.67,73.22Z"/><path class="a" d="M88.49,67.28V28.59a1.94,1.94,0,1,0-3.89,0V67.28a1.94,1.94,0,1,0,3.89,0Z"/><path class="a" d="M102,67.28V28.59a1.94,1.94,0,1,0-3.89,0V67.28a1.94,1.94,0,1,0,3.89,0Z"/><path class="a" d="M109.6,19.91H77a4,4,0,0,0-4,4V41.39h3.76V28.59a3,3,0,0,1,6.09,0V43.54a4.54,4.54,0,0,1,.67,1.92V28.59a3,3,0,0,1,6.09,0V67.28a3,3,0,0,1-5.91,1v9.37h18.1V75.81a4.58,4.58,0,0,1,4.58-4.58h7.28V23.94A4,4,0,0,0,109.6,19.91ZM96.35,67.28a3,3,0,1,1-6.09,0V28.59a3,3,0,0,1,6.09,0Zm6.76,0a3,3,0,1,1-6.09,0V28.59a3,3,0,0,1,6.09,0Zm6.76,0a3,3,0,1,1-6.09,0V28.59a3,3,0,0,1,6.09,0Z"/><path class="a" d="M113.63,40.12v2a4.64,4.64,0,0,1,2.66,4.19v5a4.64,4.64,0,0,1-2.66,4.19v2a6.48,6.48,0,0,0,4.49-6.16v-5A6.48,6.48,0,0,0,113.63,40.12Z"/><path class="a" d="M82.24,18.47v1.44h2.14V18.44a1.83,1.83,0,0,0,.87-1.56v-.7h16.12v.7a1.83,1.83,0,0,0,.87,1.56v1.47h2.14V18.47a1.84,1.84,0,0,0,.93-1.59v-3a1.83,1.83,0,0,0-1.83-1.83H83.14a1.83,1.83,0,0,0-1.83,1.83v3A1.84,1.84,0,0,0,82.24,18.47Z"/><path class="a" d="M77.15,43.19H60.6a6.47,6.47,0,0,0-5.79-3.62h-5A6.47,6.47,0,0,0,44,43.19H27.45a4.58,4.58,0,0,0-4.58,4.58v32.6a4.58,4.58,0,0,0,4.58,4.58H77.15a4.58,4.58,0,0,0,4.58-4.58V47.77A4.58,4.58,0,0,0,77.15,43.19ZM49.8,41.4h5a4.62,4.62,0,0,1,3.64,1.78H46.15A4.62,4.62,0,0,1,49.8,41.4ZM31.19,83.84v-1.4a4.65,4.65,0,0,0-4.64-4.64H24V50.33h2.58a4.65,4.65,0,0,0,4.64-4.64v-1.4h5V83.84Zm13.06,0V44.29H60.35V83.84Zm36.37-6H78a4.65,4.65,0,0,0-4.64,4.64v1.4h-5V44.29h5v1.4A4.64,4.64,0,0,0,78,50.33h2.58Z"/><path class="a" d="M104.25,77.66v1.89a2.38,2.38,0,1,0,4.76,0V77.66Z"/></svg>