<svg xmlns="http://www.w3.org/2000/svg" viewBox="0 0 141 97"><defs><style>.a{fill:#fff;fill-rule:evenodd;}</style></defs><title>Icones</title><path class="a" d="M110.28,16a1.77,1.77,0,0,0-2.3-2.32L92.51,20a1.77,1.77,0,0,0-.89.81L91.5,21h-59a1.77,1.77,0,1,0,0,3.54h3l8.93,31.54a1.78,1.78,0,0,0,1.7,1.29H85.68l.09,0a7.34,7.34,0,0,1,4,7.56l0,.39H43.5a1.77,1.77,0,0,0,0,3.54H91.21a1.76,1.76,0,0,0,1.73-1.39c1.76-8-3.11-11.77-4.65-12.74L88,54.66l6.67-31.73,14.6-6A1.75,1.75,0,0,0,110.28,16ZM72.56,24.59h8.68l-.8,5.74h-8.1Zm-13.71,0,.49,5.74H51.57l-.86-5.74Zm-19.68,0H48l.86,5.74H40.8ZM41.55,33h7.73l.8,5.35h-7Zm2.27,8h6.66l.8,5.35H45.34Zm3.64,12.88L46.09,49h5.59l.73,4.86ZM52,33h7.6L60,38.34H52.77Zm1.2,8h7.08l.46,5.35H54ZM55.1,53.88,54.37,49h6.56l.41,4.86Zm13.65,0H64L63.6,49h5.34ZM69,46.36H63.38L62.92,41h6.33Zm.31-8H62.7L62.24,33h7.33Zm.31-8H62l-.49-5.74H69.9Zm7.47,23.56H71.42L71.61,49h6.22Zm1.05-7.52H71.71L71.92,41h7Zm-6.17-8L72.23,33h7.83l-.75,5.35ZM84.6,53.88H79.83L80.51,49h5.11Zm1.58-7.52h-5.3L81.63,41h5.67Zm1.69-8H82L82.75,33H89Zm1.69-8H83.13l.8-5.74h6.83Z"/><path class="a" d="M85.67,71.31a6.07,6.07,0,1,0,6.07,6.07A6.08,6.08,0,0,0,85.67,71.31Zm0,9.77a3.7,3.7,0,1,1,3.7-3.7A3.71,3.71,0,0,1,85.67,81.09Z"/><path class="a" d="M51,71.31a6.07,6.07,0,1,0,6.07,6.07A6.08,6.08,0,0,0,51,71.31Zm0,9.77a3.7,3.7,0,1,1,3.7-3.7A3.7,3.7,0,0,1,51,81.09Z"/></svg>