<svg xmlns="http://www.w3.org/2000/svg" viewBox="0 0 141 97"><defs><style>.a{fill:#fff;}.b{fill:none;stroke:#fff;stroke-miterlimit:10;stroke-width:1.71px;}</style></defs><title>Icones</title><path class="a" d="M87.06,40.55S84.68,44.29,84.68,47a3.49,3.49,0,0,0,.37,1.66,2.29,2.29,0,0,0,4,0A3.49,3.49,0,0,0,89.44,47C89.44,44.29,87.06,40.55,87.06,40.55Z"/><path class="a" d="M77.79,67.28v2.53c2.78.27,5.89.42,9.27.42,14,0,23.35-2.6,23.35-5,0-.47-.36-.95-1-1.41V50.41c-3.77,2.24-13.16,3.53-22.31,3.53-3.14,0-6.31-.15-9.27-.44v8.61l.18.11c1.26.75,1.89,1.59,1.89,2.5S79.11,66.53,77.79,67.28Z"/><path class="a" d="M77.83,28.6l.32.21.08.05.25.19.07.06.24.22,0,0,.23.26,0,0,.15.21,0,.08.09.18,0,.09a1.68,1.68,0,0,1,.05.19l0,.08a1.56,1.56,0,0,1,0,.27c0,.81-.62,1.54-1.72,2.19v2.9c2.78.27,5.89.42,9.27.42,14,0,23.35-2.6,23.35-5,0-.47-.36-.95-1-1.41V16.47C105.61,18.72,96.22,20,87.06,20s-18.55-1.29-22.32-3.53v9a58.56,58.56,0,0,1,8.54,1.4l.65.17h0c.67.19,1.29.39,1.86.6h0l.51.2.05,0,.48.21h0a9.84,9.84,0,0,1,.89.46Z"/><path class="a" d="M77.79,50.31v2.53c2.78.27,5.89.42,9.27.42,14,0,23.35-2.6,23.35-5,0-.47-.36-.95-1-1.41V33.44C105.61,35.69,96.22,37,87.06,37c-3.14,0-6.31-.15-9.27-.44v8.61l.18.11c1.26.75,1.89,1.59,1.89,2.5S79.11,49.56,77.79,50.31ZM80.4,44.6c0-.1,0-.2,0-.31s0-.18,0-.27.05-.27.09-.4l0-.12c0-.16.09-.31.14-.46h0a6.68,6.68,0,0,1,12.64,0c.05.15.1.31.14.46l0,.12q0,.2.09.4c0,.09,0,.18,0,.27s0,.2,0,.31,0,.41,0,.62a6.69,6.69,0,0,1-13.38,0C80.37,45,80.38,44.8,80.4,44.6Z"/><path class="a" d="M110.41,14.28c0-2.43-9.38-5-23.35-5s-23.35,2.6-23.35,5,9.38,5,23.35,5S110.41,16.71,110.41,14.28Zm-39,1c-2.37,0-4.29-.44-4.29-1s1.92-1,4.29-1,4.29.44,4.29,1S73.83,15.25,71.46,15.25Z"/><polygon class="a" points="78 46.94 77.59 46.58 77.59 32.64 78 32.64 78 46.94"/><polygon class="a" points="78 63.91 77.59 63.55 77.59 49.61 78 49.61 78 63.91"/><polygon class="a" points="78 80.88 77.59 80.53 77.59 66.58 78 66.58 78 80.88"/><polygon class="a" points="32.96 46.94 33.37 46.58 33.37 32.64 32.96 32.64 32.96 46.94"/><polygon class="a" points="32.96 63.91 33.37 63.55 33.37 49.61 32.96 49.61 32.96 63.91"/><polygon class="a" points="32.96 80.88 33.37 80.53 33.37 66.58 32.96 66.58 32.96 80.88"/><path class="b" d="M55.48,36.49c-11.81,0-24-2.14-24-5.72s12.22-5.72,24-5.72,24,2.14,24,5.72S67.29,36.49,55.48,36.49Zm0-10.75c-14,0-23.35,2.6-23.35,5s9.38,5,23.35,5,23.35-2.6,23.35-5S69.44,25.74,55.48,25.74Z"/><path class="a" d="M39.88,29.8c-2.37,0-4.29.44-4.29,1s1.92,1,4.29,1,4.29-.44,4.29-1S42.25,29.8,39.88,29.8Z"/><path class="a" d="M78,45.25l-.18-.11v1.62c.45.35.68.68.68,1,0,2-8.75,4.68-23,4.68s-23-2.73-23-4.68c0-.3.23-.63.68-1V45.14l-.18.11c-1.26.75-1.89,1.59-1.89,2.5,0,3.94,12.56,6.07,24.39,6.07s24.39-2.13,24.39-6.07C79.86,46.83,79.23,46,78,45.25Z"/><path class="a" d="M78,62.22l-.18-.11v1.62c.45.35.68.68.68,1,0,2-8.75,4.68-23,4.68s-23-2.73-23-4.68c0-.3.23-.63.68-1V62.11l-.18.11c-1.26.75-1.89,1.59-1.89,2.5,0,3.94,12.56,6.07,24.39,6.07s24.39-2.13,24.39-6.07C79.86,63.8,79.23,63,78,62.22Z"/><path class="a" d="M78,79.19l-.18-.11V80.7c.45.35.68.68.68,1,0,2-8.75,4.68-23,4.68s-23-2.73-23-4.68c0-.3.23-.63.68-1V79.08l-.18.11c-1.26.75-1.89,1.59-1.89,2.49,0,3.94,12.56,6.07,24.39,6.07s24.39-2.13,24.39-6.07C79.86,80.77,79.23,79.93,78,79.19Z"/><path class="a" d="M55.48,55.1A6.51,6.51,0,1,0,62,61.6,6.51,6.51,0,0,0,55.48,55.1Zm2,9.89a2.23,2.23,0,0,1-3.9,0,3.39,3.39,0,0,1-.36-1.61c0-2.68,2.31-6.31,2.31-6.31s2.31,3.63,2.31,6.31A3.39,3.39,0,0,1,57.43,65Z"/></svg>