<svg xmlns="http://www.w3.org/2000/svg" viewBox="0 0 141 97"><defs><style>.a{fill:#fff;}</style></defs><title>Icones</title><path class="a" d="M30.9,27H27c-3.44,0-6.22,7.44-6.22,16.67S23.55,60.41,27,60.41H30.9c-3.46,0-6.25-7.49-6.25-16.72S27.44,27,30.9,27Z"/><path class="a" d="M33.21,53.2c-2-1.41-3-5.75-3-9.52s.93-8.06,3-9.52H37.6c-1.13-4.34-3-7.16-5.12-7.16-3.46,0-6.25,7.44-6.25,16.67S29,60.41,32.47,60.41c2.11,0,4-2.88,5.12-7.21ZM32.9,28.77c.78,0,1.46.89,1.46,2s-.67,2-1.46,2-1.47-.9-1.47-2S32.08,28.77,32.9,28.77ZM28.39,45c-.65,0-1.16-.9-1.16-2s.51-2,1.16-2,1.18.9,1.18,2S29,45,28.39,45ZM32.9,58.32c-.82,0-1.47-.9-1.47-2s.64-2,1.47-2,1.46.9,1.46,2S33.68,58.32,32.9,58.32Z"/><path class="a" d="M45.31,51.29A15.46,15.46,0,0,1,42.81,43a14.91,14.91,0,0,1,1.66-6.82H35c-1.55,0-2.82,3.39-2.82,7.55s1.27,7.6,2.82,7.6c.06,0,.08-.06.11-.06v.06Z"/><path class="a" d="M66.88,11.81c-13.18,0-27.34,3.32-27.34,10.59S53.7,32.93,66.88,32.93,94.22,29.66,94.22,22.4,80.06,11.81,66.88,11.81Zm2.28,7.6c1.77.62,3,1.91,3,2.88,0,1.35-2.26,2.47-5,2.47a8,8,0,0,1-3.72-.84,8.61,8.61,0,0,0,2.82.45c2.76,0,5-1.13,5-2.42A3.5,3.5,0,0,0,69.16,19.41Zm.09-1.24a8.27,8.27,0,0,0-2.37-.33,9,9,0,0,0-5.07,1.57l-6.9-1.63a64.81,64.81,0,0,1,12-1c1.49,0,2.9.06,4.22.11Zm-5.52,7.32a13.36,13.36,0,0,0,3.15.4A11.43,11.43,0,0,0,72,24.82l8.17,1.91A61.31,61.31,0,0,1,66.88,28c-2.31,0-4.45-.11-6.42-.27ZM74,22.29a4.14,4.14,0,0,0-1.74-2.65l3.44-2.37c8.87,1.19,13.6,3.83,13.6,5.13C89.32,23,88.11,24,85.8,25ZM44.24,20.54a2.4,2.4,0,0,0-.08.9c-.4-1-.4-1.24-.28-1.63.31-1.41,6.64-5,21.17-5,13.21,0,20.86,2.82,22.19,4.34-3.07-1.52-10.08-3.32-20.64-3.32C52,15.86,44.81,19.14,44.24,20.54Zm.2,1.87c0-.73,1.52-1.92,4.45-3l10.9,2.53a1.28,1.28,0,0,0-.06.46,2.27,2.27,0,0,0,.87,1.68l-4.53,3.1C48.47,25.95,44.44,23.58,44.44,22.4ZM68,31.81c-9.09,0-18.72-1.69-22.63-5.3,4.51,2.88,13.09,4.23,21.26,4.23,11.77,0,24.44-2.82,24.44-9A5,5,0,0,0,89.26,18c2,1.25,3.18,2.88,3.18,4.73C92.45,29,79.78,31.81,68,31.81Z"/><path class="a" d="M98.81,34.17h1.75c1.84,1.32,2.74,5,2.9,8.47.25.1.49.23.73.34,0-1.11.54-2,1.18-2s1.15.9,1.15,2a3.23,3.23,0,0,1-.19,1.14q.61.38,1.19.81c0-.42,0-.84,0-1.26,0-9.23-2.79-16.67-6.25-16.67-2.11,0-4,2.82-5.12,7.16h2.65Zm2.06-5.4c.82,0,1.46.89,1.46,2s-.65,2-1.46,2-1.46-.9-1.46-2S100,28.77,100.86,28.77Z"/><path class="a" d="M109.11,43.69c0,.85,0,1.68-.08,2.5a19.85,19.85,0,0,1,3.46,4.07,42.05,42.05,0,0,0,.5-6.57c0-9.23-2.79-16.67-6.25-16.67h-3.89C106.3,27,109.11,34.45,109.11,43.69Z"/><path class="a" d="M95.87,41.12a19.66,19.66,0,0,1,5.64.83c-.29-3.33-1.42-5.82-2.76-5.82H89.29a15.34,15.34,0,0,1,1.58,5.65A19.63,19.63,0,0,1,95.87,41.12Z"/><path class="a" d="M77.64,53.32A23,23,0,0,1,66.2,56.24c-8,0-14.84-3.78-17.6-9.07,3.41,3.77,9.15,6.25,15.62,6.25,10.48,0,18.95-6.42,18.95-14.36a11.12,11.12,0,0,0-1.32-5.23,12,12,0,0,1,3.29,8,11.06,11.06,0,0,1-.33,2.63,19.7,19.7,0,0,1,4-2.06,14.57,14.57,0,0,0-5.35-10.37,68.42,68.42,0,0,1-16.58,2,68.46,68.46,0,0,1-16.58-2A14.46,14.46,0,0,0,44.92,43c0,9.17,9.83,16.66,22,16.66A27.68,27.68,0,0,0,76.37,58,19.58,19.58,0,0,1,77.64,53.32Z"/><path class="a" d="M119.33,79.93l-9.14-9.14.39-.62a17.5,17.5,0,1,0-5.39,5.39l.62-.39L115,84.31a3.17,3.17,0,0,0,4.38,0,3.1,3.1,0,0,0,0-4.38ZM95.87,74.39A13.53,13.53,0,1,1,109.4,60.85,13.55,13.55,0,0,1,95.87,74.39Z"/></svg>