<svg xmlns="http://www.w3.org/2000/svg" viewBox="0 0 141 97"><defs><style>.a{fill:#fff;}</style></defs><title>Icones</title><path class="a" d="M35.86,22.39A8.61,8.61,0,0,1,52.22,17L69.14,68.28a11.31,11.31,0,0,0-4.93-.19L47.83,18.44a4,4,0,0,0-7.58,2.5,2.31,2.31,0,1,1-4.39,1.45Z"/><path class="a" d="M102.54,62.62,74.81,71.77a11.32,11.32,0,0,1,2.26,3.95c0,.05,0,.11,0,.16L104,67a2.31,2.31,0,0,0-1.45-4.39Z"/><path class="a" d="M74.87,76.44A9.08,9.08,0,1,0,69.1,87.9,9.08,9.08,0,0,0,74.87,76.44Zm-7.2,7.15a4.54,4.54,0,1,1,2.89-5.73A4.54,4.54,0,0,1,67.68,83.59Z"/><path class="a" d="M104.94,56.36,95.53,27.83a1.16,1.16,0,0,0-1.46-.74L64.44,36.87a1.16,1.16,0,0,0-.74,1.46l9.41,28.53a1.16,1.16,0,0,0,1.46.74l29.63-9.78A1.16,1.16,0,0,0,104.94,56.36Zm-15-8.89-4.36-2.4,3.75,11.36-3.59,1.18L82,46.25,79.9,50.78l-3.18-1.46,4.8-10.46L91.61,44.4Z"/><path class="a" d="M82.81,27.38l-6-18.24a.74.74,0,0,0-.93-.47l-5.16,1.7,0,0,0,0-2.72.9,2.24,6.79-3.07,1-2.24-6.79-2.72.9,0,0,0,0-5.13,1.69a.74.74,0,0,0-.47.93l6,18.24a.74.74,0,0,0,.93.47l18.94-6.25A.74.74,0,0,0,82.81,27.38Z"/></svg>