<?xml version="1.0" encoding="utf-8"?>
<!-- Generator: Adobe Illustrator 21.0.0, SVG Export Plug-In . SVG Version: 6.00 Build 0)  -->
<svg version="1.1" xmlns="http://www.w3.org/2000/svg" xmlns:xlink="http://www.w3.org/1999/xlink" x="0px" y="0px"
	 viewBox="0 0 648.5 800" style="enable-background:new 0 0 648.5 800;" xml:space="preserve">
<style type="text/css">
	.st0{fill:url(#SVGID_1_);}
	.st1{fill:url(#SVGID_2_);}
	.st2{clip-path:url(#SVGID_4_);}
	.st3{fill:url(#SVGID_5_);}
	.st4{clip-path:url(#SVGID_7_);}
	.st5{fill:url(#SVGID_8_);}
	.st6{clip-path:url(#SVGID_10_);}
	.st7{fill:#E28307;}
	.st8{opacity:0.7;fill:#333333;}
	.st9{fill:#1F944B;}
	.st10{fill:#00A293;}
	.st11{fill:#265B70;}
	.st12{fill:#662D90;}
	.st13{fill:#770C19;}
	.st14{fill:none;stroke:#333333;stroke-width:3;stroke-miterlimit:10;}
	.st15{fill:#333333;}
	.st16{fill:url(#SVGID_11_);}
	.st17{clip-path:url(#SVGID_13_);}
	.st18{fill:#66A2C1;}
	.st19{opacity:0.89;}
	.st20{clip-path:url(#SVGID_15_);}
	.st21{clip-path:url(#SVGID_17_);}
	.st22{fill:#D8DF21;}
	.st23{fill:url(#SVGID_18_);}
	.st24{fill:#E17E1A;}
	.st25{opacity:0.7;fill:#FFFFFF;}
	.st26{fill:none;stroke:#FFFFFF;stroke-width:3;stroke-miterlimit:10;}
	.st27{fill:#FFFFFF;}
	.st28{fill:url(#SVGID_21_);}
	.st29{fill:url(#SVGID_22_);}
	.st30{opacity:0.7;fill:none;stroke:#FFFFFF;stroke-width:3;stroke-miterlimit:10;}
	.st31{fill:none;stroke:#754C24;stroke-width:3;stroke-miterlimit:10;}
	.st32{fill:none;stroke:#264758;stroke-width:3;stroke-miterlimit:10;}
	.st33{fill:url(#SVGID_23_);}
	.st34{fill:url(#SVGID_24_);}
	.st35{fill:url(#SVGID_25_);}
	.st36{fill:#C72128;}
	.st37{fill:url(#SVGID_26_);}
	.st38{fill:#F04950;}
	.st39{fill:none;stroke:#4D4D4D;stroke-width:3;stroke-miterlimit:10;}
	.st40{fill:#4D4D4D;}
	.st41{fill:#E7E7E7;}
	.st42{fill:none;stroke:#FFFFFF;stroke-width:4.0038;stroke-linecap:round;stroke-miterlimit:10;}
	.st43{fill:none;stroke:#FFFFFF;stroke-width:4.0038;stroke-linecap:round;stroke-linejoin:round;stroke-miterlimit:10;}
	.st44{fill:none;stroke:#FFFFFF;stroke-width:3.9808;stroke-linecap:round;stroke-miterlimit:10;}
	
		.st45{fill-rule:evenodd;clip-rule:evenodd;fill:none;stroke:#FFFFFF;stroke-width:3.9808;stroke-linecap:round;stroke-linejoin:round;stroke-miterlimit:10;}
	.st46{fill:none;stroke:#FFFFFF;stroke-width:7;stroke-miterlimit:10;}
	.st47{fill:url(#SVGID_45_);}
	.st48{fill:url(#SVGID_46_);}
	.st49{opacity:0.94;}
	.st50{fill:#8073B2;}
	.st51{opacity:0.85;}
	.st52{clip-path:url(#SVGID_50_);}
	.st53{fill:#A2D065;}
	.st54{opacity:0.96;}
	.st55{fill:none;stroke:#FFFFFF;stroke-width:7;stroke-linecap:round;stroke-miterlimit:10;}
	
		.st56{fill-rule:evenodd;clip-rule:evenodd;fill:none;stroke:#FFFFFF;stroke-width:7;stroke-linecap:round;stroke-linejoin:round;stroke-miterlimit:10;}
	.st57{fill:none;stroke:#FFFFFF;stroke-width:7;stroke-linecap:round;stroke-linejoin:round;stroke-miterlimit:10;}
	.st58{fill:#D8DF21;stroke:#333333;stroke-width:2;stroke-miterlimit:10;}
	.st59{clip-path:url(#SVGID_54_);}
	.st60{clip-path:url(#SVGID_56_);}
	.st61{clip-path:url(#SVGID_58_);}
	.st62{clip-path:url(#SVGID_60_);}
	.st63{opacity:0.7;fill:url(#SVGID_61_);}
	.st64{fill:#EDA64D;}
	.st65{fill:#83AE5D;}
	.st66{fill:#CC362D;}
	.st67{fill:#FF5507;}
	.st68{fill:#2C449D;}
	.st69{fill:#956441;}
	.st70{fill:#7F6486;}
	.st71{fill:#8BB42B;}
	.st72{fill:#E5742D;}
	.st73{fill:#33855F;}
	.st74{fill:none;stroke:#FFFFFF;stroke-width:1.7051;stroke-miterlimit:10;}
	.st75{fill:#FFFFFF;stroke:#FFFFFF;stroke-width:2.5134;stroke-miterlimit:10;}
	.st76{fill:none;stroke:#FFFFFF;stroke-width:2.5134;stroke-miterlimit:10;}
	.st77{fill:#C06096;}
	.st78{fill-rule:evenodd;clip-rule:evenodd;fill:#FFFFFF;}
	.st79{clip-path:url(#SVGID_63_);}
	.st80{clip-path:url(#SVGID_67_);}
	.st81{fill:#C0272D;}
	.st82{fill:#666666;}
	.st83{fill:none;stroke:#06FFCE;stroke-width:4;stroke-linecap:round;stroke-miterlimit:10;}
	.st84{fill:#85B5CD;}
	.st85{fill:#264758;}
	.st86{fill:#4D7A91;}
	.st87{fill:#A3C7DA;}
	.st88{fill:#C2DAE6;}
	.st89{clip-path:url(#SVGID_75_);}
	.st90{opacity:0.7;}
	.st91{clip-path:url(#SVGID_77_);}
	.st92{clip-path:url(#SVGID_79_);}
	.st93{opacity:0.57;}
	.st94{clip-path:url(#SVGID_81_);}
	.st95{fill:url(#SVGID_82_);}
	.st96{fill:none;stroke:#FFFFFF;stroke-width:4;stroke-miterlimit:10;}
	.st97{opacity:0.6;}
	.st98{opacity:0.4;clip-path:url(#SVGID_84_);}
	.st99{fill:none;stroke:#FFFFFF;stroke-width:27;stroke-linecap:round;stroke-miterlimit:10;}
	.st100{fill:none;stroke:#FFFFFF;stroke-width:27;stroke-linecap:round;stroke-linejoin:round;stroke-miterlimit:10;}
	.st101{opacity:0.4;clip-path:url(#SVGID_86_);}
	.st102{opacity:0.4;clip-path:url(#SVGID_88_);}
	.st103{opacity:0.4;clip-path:url(#SVGID_90_);}
	
		.st104{fill-rule:evenodd;clip-rule:evenodd;fill:none;stroke:#FFFFFF;stroke-width:27;stroke-linecap:round;stroke-linejoin:round;stroke-miterlimit:10;}
	.st105{opacity:0.4;clip-path:url(#SVGID_92_);}
	.st106{opacity:0.4;clip-path:url(#SVGID_94_);}
	.st107{fill:#87D000;}
	.st108{fill:#29B423;}
	.st109{fill:#06A3A5;}
	.st110{fill:#008D69;}
	.st111{fill:#00D078;}
	.st112{fill:#06D0E5;}
	.st113{opacity:0.4;clip-path:url(#SVGID_96_);}
	.st114{display:none;}
	.st115{display:inline;fill:none;}
	.st116{display:inline;}
</style>
<g id="Layer_1">
	<g id="Camada_4">
	</g>
	<g>
		<defs>
			<rect id="SVGID_95_" y="2.6" width="648.5" height="798.4"/>
		</defs>
		<clipPath id="SVGID_1_">
			<use xlink:href="#SVGID_95_"  style="overflow:visible;"/>
		</clipPath>
		<g style="opacity:0.1;clip-path:url(#SVGID_1_);">
			<g>
				<g>
					<path class="st99" d="M614.7,648.8c0,3.3-2.7,6-6,6h-871.1c-3.3,0-6-2.7-6-6v-592c0-3.3,2.7-6,6-6h871.1c3.3,0,6,2.7,6,6V648.8
						z"/>
				</g>
				<g>
					<path class="st99" d="M566.5,492c0,3.3-2.7,6-6,6h-774.7c-3.3,0-6-2.7-6-6V108.3c0-3.3,2.7-6,6-6h774.7c3.3,0,6,2.7,6,6V492z"
						/>
				</g>
				<line class="st99" x1="-268.3" y1="545" x2="614.7" y2="545"/>
				<g>
					<path class="st99" d="M335.9,822.9c0,2.8-2.3,5-5,5H15.5c-2.8,0-5-2.3-5-5v-51.9c0-2.8,2.3-5,5-5h315.4c2.8,0,5,2.3,5,5V822.9z
						"/>
				</g>
				<g>
					<line class="st99" x1="73.5" y1="766.7" x2="73.5" y2="655.5"/>
					<line class="st99" x1="272.5" y1="766.7" x2="272.5" y2="655.5"/>
				</g>
				<path class="st99" d="M186.5,601.2c0-7.3-5.9-13.3-13.3-13.3c-7.3,0-13.3,5.9-13.3,13.3c0,7.3,5.9,13.3,13.3,13.3
					C180.5,614.5,186.5,608.6,186.5,601.2z"/>
				<g>
					<polyline class="st99" points="347,182.9 286.5,207.9 286.5,342.7 56.1,342.7 56.1,230.2 201.6,230.2 					"/>
					<path class="st99" d="M88.1,401.1c0-7.3-5.9-13.3-13.3-13.3c-7.3,0-13.3,5.9-13.3,13.3c0,7.3,5.9,13.3,13.3,13.3
						C82.1,414.4,88.1,408.4,88.1,401.1z"/>
					<path class="st99" d="M276,401.1c0-7.3-5.9-13.3-13.3-13.3c-7.3,0-13.3,5.9-13.3,13.3c0,7.3,5.9,13.3,13.3,13.3
						C270.1,414.4,276,408.4,276,401.1z"/>
				</g>
			</g>
		</g>
	</g>
</g>
<g id="Camada_2" class="st114">
</g>
<g id="Camada_3" class="st114">
</g>
</svg>
