<?xml version="1.0" encoding="utf-8"?>
<!-- Generator: Adobe Illustrator 21.0.0, SVG Export Plug-In . SVG Version: 6.00 Build 0)  -->
<svg version="1.1" xmlns="http://www.w3.org/2000/svg" xmlns:xlink="http://www.w3.org/1999/xlink" x="0px" y="0px"
	 viewBox="0 0 648.5 800" style="enable-background:new 0 0 648.5 800;" xml:space="preserve">
<style type="text/css">
	.st0{fill:url(#SVGID_1_);}
	.st1{fill:url(#SVGID_2_);}
	.st2{clip-path:url(#SVGID_4_);}
	.st3{fill:url(#SVGID_5_);}
	.st4{clip-path:url(#SVGID_7_);}
	.st5{fill:url(#SVGID_8_);}
	.st6{clip-path:url(#SVGID_10_);}
	.st7{fill:#E28307;}
	.st8{opacity:0.1;fill:#333333;}
	.st9{fill:#1F944B;}
	.st10{fill:#00A293;}
	.st11{fill:#265B70;}
	.st12{fill:#662D90;}
	.st13{fill:#770C19;}
	.st14{fill:none;stroke:#333333;stroke-width:3;stroke-miterlimit:10;}
	.st15{fill:#333333;}
	.st16{fill:url(#SVGID_11_);}
	.st17{clip-path:url(#SVGID_13_);}
	.st18{fill:#66A2C1;}
	.st19{opacity:0.89;}
	.st20{clip-path:url(#SVGID_15_);}
	.st21{clip-path:url(#SVGID_17_);}
	.st22{fill:#D8DF21;}
	.st23{fill:url(#SVGID_18_);}
	.st24{fill:#E17E1A;}
	.st25{opacity:0.7;fill:#FFFFFF;}
	.st26{fill:none;stroke:#FFFFFF;stroke-width:3;stroke-miterlimit:10;}
	.st27{fill:#FFFFFF;}
	.st28{fill:url(#SVGID_21_);}
	.st29{fill:url(#SVGID_22_);}
	.st30{opacity:0.7;fill:none;stroke:#FFFFFF;stroke-width:3;stroke-miterlimit:10;}
	.st31{fill:none;stroke:#754C24;stroke-width:3;stroke-miterlimit:10;}
	.st32{fill:none;stroke:#264758;stroke-width:3;stroke-miterlimit:10;}
	.st33{fill:url(#SVGID_23_);}
	.st34{fill:url(#SVGID_24_);}
	.st35{fill:url(#SVGID_25_);}
	.st36{fill:#C72128;}
	.st37{fill:url(#SVGID_26_);}
	.st38{fill:#F04950;}
	.st39{fill:none;stroke:#4D4D4D;stroke-width:3;stroke-miterlimit:10;}
	.st40{fill:#4D4D4D;}
	.st41{fill:#E7E7E7;}
	.st42{fill:none;stroke:#FFFFFF;stroke-width:4.0038;stroke-linecap:round;stroke-miterlimit:10;}
	.st43{fill:none;stroke:#FFFFFF;stroke-width:4.0038;stroke-linecap:round;stroke-linejoin:round;stroke-miterlimit:10;}
	.st44{fill:none;stroke:#FFFFFF;stroke-width:3.9808;stroke-linecap:round;stroke-miterlimit:10;}
	
		.st45{fill-rule:evenodd;clip-rule:evenodd;fill:none;stroke:#FFFFFF;stroke-width:3.9808;stroke-linecap:round;stroke-linejoin:round;stroke-miterlimit:10;}
	.st46{fill:none;stroke:#FFFFFF;stroke-width:7;stroke-miterlimit:10;}
	.st47{fill:url(#SVGID_45_);}
	.st48{fill:url(#SVGID_46_);}
	.st49{opacity:0.94;}
	.st50{fill:#8073B2;}
	.st51{opacity:0.85;}
	.st52{clip-path:url(#SVGID_50_);}
	.st53{fill:#A2D065;}
	.st54{opacity:0.96;}
	.st55{fill:none;stroke:#FFFFFF;stroke-width:7;stroke-linecap:round;stroke-miterlimit:10;}
	
		.st56{fill-rule:evenodd;clip-rule:evenodd;fill:none;stroke:#FFFFFF;stroke-width:7;stroke-linecap:round;stroke-linejoin:round;stroke-miterlimit:10;}
	.st57{fill:none;stroke:#FFFFFF;stroke-width:7;stroke-linecap:round;stroke-linejoin:round;stroke-miterlimit:10;}
	.st58{fill:#D8DF21;stroke:#333333;stroke-width:2;stroke-miterlimit:10;}
	.st59{clip-path:url(#SVGID_54_);}
	.st60{clip-path:url(#SVGID_56_);}
	.st61{clip-path:url(#SVGID_58_);}
	.st62{clip-path:url(#SVGID_60_);}
	.st63{opacity:0.7;fill:url(#SVGID_61_);}
	.st64{fill:#EDA64D;}
	.st65{fill:#83AE5D;}
	.st66{fill:#CC362D;}
	.st67{fill:#FF5507;}
	.st68{fill:#2C449D;}
	.st69{fill:#956441;}
	.st70{fill:#7F6486;}
	.st71{fill:#8BB42B;}
	.st72{fill:#E5742D;}
	.st73{fill:#33855F;}
	.st74{fill:none;stroke:#FFFFFF;stroke-width:1.7051;stroke-miterlimit:10;}
	.st75{fill:#FFFFFF;stroke:#FFFFFF;stroke-width:2.5134;stroke-miterlimit:10;}
	.st76{fill:none;stroke:#FFFFFF;stroke-width:2.5134;stroke-miterlimit:10;}
	.st77{fill:#C06096;}
	.st78{fill-rule:evenodd;clip-rule:evenodd;fill:#FFFFFF;}
	.st79{clip-path:url(#SVGID_63_);}
	.st80{clip-path:url(#SVGID_67_);}
	.st81{fill:#C0272D;}
	.st82{fill:#666666;}
	.st83{fill:none;stroke:#06FFCE;stroke-width:4;stroke-linecap:round;stroke-miterlimit:10;}
	.st84{fill:#85B5CD;}
	.st85{fill:#264758;}
	.st86{fill:#4D7A91;}
	.st87{fill:#A3C7DA;}
	.st88{fill:#C2DAE6;}
	.st89{clip-path:url(#SVGID_75_);}
	.st90{opacity:0.7;}
	.st91{clip-path:url(#SVGID_77_);}
	.st92{clip-path:url(#SVGID_79_);}
	.st93{opacity:0.57;}
	.st94{clip-path:url(#SVGID_81_);}
	.st95{fill:url(#SVGID_82_);}
	.st96{fill:none;stroke:#FFFFFF;stroke-width:4;stroke-miterlimit:10;}
	.st97{opacity:0.6;}
	.st98{opacity:0.4;clip-path:url(#SVGID_84_);}
	.st99{fill:none;stroke:#FFFFFF;stroke-width:27;stroke-linecap:round;stroke-miterlimit:10;}
	.st100{fill:none;stroke:#FFFFFF;stroke-width:27;stroke-linecap:round;stroke-linejoin:round;stroke-miterlimit:10;}
	.st101{opacity:0.4;clip-path:url(#SVGID_86_);}
	.st102{opacity:0.4;clip-path:url(#SVGID_88_);}
	.st103{opacity:0.4;clip-path:url(#SVGID_90_);}
	
		.st104{fill-rule:evenodd;clip-rule:evenodd;fill:none;stroke:#FFFFFF;stroke-width:27;stroke-linecap:round;stroke-linejoin:round;stroke-miterlimit:10;}
	.st105{opacity:0.4;clip-path:url(#SVGID_92_);}
	.st106{opacity:0.4;clip-path:url(#SVGID_94_);}
	.st107{fill:#87D000;}
	.st108{fill:#29B423;}
	.st109{fill:#06A3A5;}
	.st110{fill:#008D69;}
	.st111{fill:#00D078;}
	.st112{fill:#06D0E5;}
	.st113{opacity:0.4;clip-path:url(#SVGID_96_);}
	.st114{display:none;}
	.st115{display:inline;fill:none;}
	.st116{display:inline;}
</style>
<g id="Layer_1">
	<g id="Camada_4">
	</g>
	<g style="opacity:0.4;clip-path:url(#SVGID_1_);">
		<path class="st27" d="M608.7,37.3H0v27h601.2v467.2H0v27h601.2v82.8H0v27h60v84.1H15.5c-6.5,0-12.2,3.4-15.5,8.4V800h24v-20.6
			h45.2c1.3,0.5,2.8,0.7,4.3,0.7s2.9-0.3,4.3-0.7h190.5c1.3,0.5,2.8,0.7,4.3,0.7s2.9-0.3,4.3-0.7h45.6V800h27v-29.1
			c0-10.2-8.3-18.5-18.5-18.5H286v-84.1h322.7c10.8,0,19.5-8.7,19.5-19.5v-592C628.2,46.1,619.5,37.3,608.7,37.3z M259,752.4H87
			v-84.1h172V752.4z"/>
		<path class="st27" d="M200,601.2c0-14.8-12-26.8-26.8-26.8c-14.8,0-26.8,12-26.8,26.8c0,14.8,12,26.8,26.8,26.8
			C188,628,200,616,200,601.2z M173,601.2C173,601.2,173,601.2,173,601.2C173,601.2,173,601.2,173,601.2c0-0.1,0.1-0.2,0.2-0.2
			c0.1,0,0.2,0.1,0.2,0.2l13,0l-13,0c0,0.1-0.1,0.2-0.2,0.2C173.1,601.4,173,601.4,173,601.2z"/>
		<path class="st27" d="M201.6,243.7c7.5,0,13.5-6,13.5-13.5s-6-13.5-13.5-13.5h-159v139.6H300V216.9l52.2-21.6
			c6.9-2.8,10.2-10.7,7.3-17.6c-2.8-6.9-10.7-10.2-17.6-7.3L273,198.8v130.4H69.6v-85.6H201.6z"/>
		<path class="st27" d="M48,401.1c0,14.8,12,26.8,26.8,26.8c14.8,0,26.8-12,26.8-26.8s-12-26.8-26.8-26.8
			C60,374.3,48,386.4,48,401.1z M75,401.1l13,0L75,401.1c0,0.1-0.1,0.2-0.2,0.2c-0.1,0-0.2-0.1-0.2-0.2c0,0,0,0,0,0c0,0,0,0,0,0
			c0-0.1,0.1-0.2,0.2-0.2C74.9,400.9,75,401,75,401.1z"/>
		<path class="st27" d="M235.9,401.1c0,14.8,12,26.8,26.8,26.8s26.8-12,26.8-26.8s-12-26.8-26.8-26.8S235.9,386.4,235.9,401.1z
			 M262.9,401.1l13,0L262.9,401.1c0,0.1-0.1,0.2-0.2,0.2c-0.1,0-0.2-0.1-0.2-0.2c0,0,0,0,0,0c0,0,0,0,0,0c0-0.1,0.1-0.2,0.2-0.2
			C262.8,400.9,262.9,401,262.9,401.1z"/>
	</g>
</g>
<g id="Camada_2" class="st114">
</g>
<g id="Camada_3" class="st114">
</g>
</svg>
