<svg xmlns="http://www.w3.org/2000/svg" viewBox="0 0 30.17 29.12"><defs><style>.a{fill:#666;}</style></defs><title>icon</title><path class="a" d="M24.5.38H5.67A4.76,4.76,0,0,0,.9,5.14V24a4.76,4.76,0,0,0,4.76,4.76H24.5A4.76,4.76,0,0,0,29.26,24V5.14A4.76,4.76,0,0,0,24.5.38ZM9.77,24.16h-4V11.34h4Zm-2-14.58a2.31,2.31,0,1,1,2.31-2.31A2.31,2.31,0,0,1,7.78,9.58ZM24.7,24.16h-4V17.93c0-1.49,0-3.4-2.07-3.4s-2.39,1.62-2.39,3.29v6.35h-4V11.34h3.82v1.75h.05A4.19,4.19,0,0,1,19.92,11c4,0,4.78,2.66,4.78,6.11Z"/></svg>