<svg id="Camada_1" data-name="Camada 1" xmlns="http://www.w3.org/2000/svg" viewBox="0 0 229 63"><defs><style>.cls-1{fill:#fff;}</style></defs><title>Icones</title><path class="cls-1" d="M16.66,55.06V20.77H51V55.06ZM23.33,38q0,4.51,0,9c0,1.23.34,1.58,1.54,1.58H43c1.17,0,1.53-.37,1.53-1.53q0-9.09,0-18.17c0-1.13-.36-1.5-1.48-1.5H24.79c-1.09,0-1.46.37-1.46,1.45Q23.32,33.38,23.33,38Z"/><path class="cls-1" d="M142.17,23.15h17.58l.66,5.32c-.38.2-.6.12-.69-.3a1.59,1.59,0,0,0-.06-.19c-.9-2.64-1.8-3.34-4.6-3.45-1.86-.07-3.72,0-5.59,0-.73,0-.85.44-.85,1q0,2.73,0,5.45,0,1.82,0,3.63c0,.47.15.86.72.85,2,0,4-.05,6-.16,1-.05,1.25-.42,1.46-1.38.1-.48.17-1,.3-1.45,0-.13.22-.21.34-.32.09.12.26.25.26.37,0,2.55,0,5.11,0,7.66l-.18.13c-.15-.14-.38-.26-.44-.43-.17-.51-.26-1-.4-1.56A1.55,1.55,0,0,0,155.2,37c-2-.08-4-.1-6-.11-.51,0-.6.41-.6.81,0,.92,0,1.84,0,2.76,0,1.93,0,3.86.12,5.78a2.24,2.24,0,0,0,2,2.38,23.84,23.84,0,0,0,7.83,0,3.12,3.12,0,0,0,2.11-1.44c.54-.77,1-1.59,1.52-2.38a2.63,2.63,0,0,1,.56-.47l.21.17-.86,3.56c-.12.5-.28,1-.37,1.5s-.31.73-.89.71c-2,0-4,0-6.06,0-4.94,0-9.87-.05-14.81,0a7.48,7.48,0,0,1-6.55-3.44c-1.47-2.12-2.84-4.3-4.25-6.46-1.6-2.46-1.59-2.46-4.55-2.46-1.1,0-1.14,0-1.14,1.13q0,3.8,0,7.61c0,.07,0,.13,0,.2.06,2,.53,2.46,2.47,2.76.32,0,.94-.2.9.36s-.65.28-1,.29c-2.92,0-5.83,0-8.75,0-.2,0-.41-.19-.61-.3.2-.11.4-.3.61-.32,2.47-.21,3-.69,3-3.16,0-2.85,0-5.7,0-8.55,0-1.07.17-1.23,1.26-1.23,2,0,4,.08,6,0a5.77,5.77,0,0,1,5.4,3c.85,1.29,1.65,2.62,2.47,3.93a19.44,19.44,0,0,0,4.6,5.13,4,4,0,0,0,3.2.89,2.06,2.06,0,0,0,2-1.81,13.57,13.57,0,0,0,.23-2.34q0-9.36,0-18.71a8.07,8.07,0,0,0-.05-.81c-.16-1.52-.61-2-2.13-2.2C142.75,23.75,142.08,24,142.17,23.15Z"/><path class="cls-1" d="M193.49,49.73c.14.38.08.57-.36.57h-7.47c-.13,0-.26-.16-.39-.24.11-.11.22-.3.34-.31,2.09-.12,3.06-1.47,3.74-3.25,2.65-7,5.33-13.93,8-20.89,0-.08.1-.18.09-.25-.2-.92.55-1.19,1.08-1.59s1-.71,1.51-1.11l1.46,4.26q3.23,9.48,6.47,19a14.76,14.76,0,0,0,.68,1.61,3.73,3.73,0,0,0,3.21,2.23c.48,0,.48.05.49.56a4.06,4.06,0,0,1-.45,0c-2.94,0-5.88,0-8.81,0a1.82,1.82,0,0,1-.6-.24c.19-.12.38-.32.58-.34,2-.18,2.36-.64,1.76-2.57-.67-2.16-1.4-4.3-2.08-6.46a1.23,1.23,0,0,0-1.33-1q-3.36,0-6.73,0a1.21,1.21,0,0,0-1.31.91c-.7,2.18-1.45,4.34-2.1,6.52-.55,1.82-.09,2.41,1.82,2.55Zm4.85-22.27a3.67,3.67,0,0,0-.25.4q-1.77,4.78-3.53,9.57c-.21.57.16.66.59.66,1.9,0,3.81,0,5.71,0,.76,0,.92-.25.69-1-.43-1.36-.89-2.72-1.34-4.08C199.61,31.23,199,29.43,198.34,27.46Z"/><path class="cls-1" d="M91.27,43.86c-.62,1.78-1.23,3.55-1.86,5.32a.64.64,0,0,1-.36.35c-5.27,1.67-10.55,2-15.71-.31A13.25,13.25,0,0,1,65.8,33.86c1.21-5.47,4.76-8.79,10-10.43a22,22,0,0,1,10.65-.36c1.17.21,2.32.49,3.55.75l.57,5.88-.14.15c-.16-.12-.43-.21-.48-.37-1.11-3.57-3.75-5.17-7.27-5.53-3.79-.4-7.24.43-10,3.26a11.06,11.06,0,0,0-2.92,6.24,15.89,15.89,0,0,0,1.56,10.32c3.13,5.7,11.16,7.67,16.25,4a9.47,9.47,0,0,0,3-3.51,2.81,2.81,0,0,1,.52-.57Z"/><path class="cls-1" d="M50.41,16.82H17.25l0-.11,4-2.16q6-3.24,11.94-6.46A1,1,0,0,1,34,8q8,4.24,15.94,8.53Z"/><path class="cls-1" d="M164,50a1.83,1.83,0,0,1,.54-.34c.57-.11,1.15-.15,1.73-.25a1.51,1.51,0,0,0,1.28-1.38,14.77,14.77,0,0,0,.17-2.07q0-9.26,0-18.51a13.44,13.44,0,0,0-.14-1.87,1.79,1.79,0,0,0-1.8-1.75c-.44-.06-.9-.06-1.33-.16-.17,0-.29-.25-.44-.38l.12-.15h10.34l.12.16c-.15.13-.28.33-.45.37a9.44,9.44,0,0,1-1.13.14,1.75,1.75,0,0,0-1.8,1.73,22.89,22.89,0,0,0-.14,2.62q0,8.14,0,16.29a12.6,12.6,0,0,0,.22,2.27,2.22,2.22,0,0,0,1.87,1.88,11.41,11.41,0,0,0,2.13.26c1.59,0,3.18-.06,4.77-.12a2.73,2.73,0,0,0,2.25-1.29c.58-.88,1.05-1.82,1.6-2.71a2,2,0,0,1,.5-.42l.21.17-1,4,0,.13c-.16.55-.17,1.32-.54,1.6s-1.12.09-1.7.09H164.14Z"/><path class="cls-1" d="M98.56,50c.18-.12.35-.31.54-.34.66-.1,1.35-.09,2-.2a1.62,1.62,0,0,0,1.53-1.61,20.11,20.11,0,0,0,.15-2.28c0-1.32,0-2.65,0-4a8.38,8.38,0,0,0-1-4.2c-1.83-3.54-3.64-7.1-5.46-10.64a5.13,5.13,0,0,0-3.87-3.11c-.14,0-.25-.26-.49-.52h9.51l.14.13a1.85,1.85,0,0,1-.41.39,4.31,4.31,0,0,1-.65.16,1.3,1.3,0,0,0-.92,2.06c1.87,3.8,3.74,7.59,5.68,11.36a6.89,6.89,0,0,1,.79,3.22c0,2,0,4.08,0,6.12,0,0,0,.09,0,.13.11,2.3.62,2.81,2.91,2.93a5.48,5.48,0,0,1,.87.05c.12,0,.2.22.3.34a3.09,3.09,0,0,1-.32.25s-.13,0-.2,0H99c-.11,0-.22,0-.33,0Z"/><path class="cls-1" d="M123.51,35.27c-.9,0-1.73,0-2.55,0-.66,0-.78-.49-.78-1q0-3.53,0-7.07c0-2.13-.7-3-2.79-3.45a2.28,2.28,0,0,1-.58-.33l.09-.21c.17,0,.34,0,.51,0,3.39,0,6.78,0,10.16,0a13.05,13.05,0,0,1,5.19,1c4.13,1.83,5.17,7.48,1.9,10.33A4.89,4.89,0,0,1,131,35.77c.16-.22.27-.37.39-.51a7.06,7.06,0,0,0-.16-8.92,6.29,6.29,0,0,0-4.31-1.94,14.09,14.09,0,0,0-2.35,0c-.87.08-1,.3-1,1.18q0,4.41,0,8.82C123.51,34.68,123.51,34.93,123.51,35.27Z"/><path class="cls-1" d="M109.41,23.17h6a4.36,4.36,0,0,1-.34.9c-1.37,2-2.75,4-4.17,6-.17.24-.57.33-.86.49l-.16-.2c.4-.82.8-1.63,1.19-2.45s.68-1.41,1-2.14a1.2,1.2,0,0,0-.76-1.78,15.44,15.44,0,0,0-1.57-.34,1.94,1.94,0,0,1-.5-.31Z"/></svg>