<svg id="Camada_1" data-name="Camada 1" xmlns="http://www.w3.org/2000/svg" viewBox="0 0 229 63"><defs><style>.cls-1{fill:#fff;}</style></defs><title>Icones</title><path class="cls-1" d="M62.6,4.66a.7.7,0,0,1,.38.79,39,39,0,0,0-.56,6.88,21.73,21.73,0,0,0,4.94,13.84.7.7,0,0,1,.13.74,26.47,26.47,0,0,1-4.35,8.78,20.68,20.68,0,0,1-7,5.8c-.21.11-.35.13-.5-.1a27.71,27.71,0,0,1-3.94-10.73A35.28,35.28,0,0,1,52.44,17a24.79,24.79,0,0,1,2.26-5.6,16.88,16.88,0,0,1,7.23-6.6l.24-.11Z"/><path class="cls-1" d="M196.76,41.43c-.07.38-.11.78-.21,1.15a6.35,6.35,0,0,1-4.87,4.8,12.54,12.54,0,0,1-8.46-.67,3.75,3.75,0,0,1-.9-.58,1.46,1.46,0,0,1-.42-1.7,9.3,9.3,0,0,1,1.28-2.21l.39.29a8.54,8.54,0,0,0,3.74,1.72,5.79,5.79,0,0,0,2.89-.15,2.65,2.65,0,0,0,2-2.13A2.73,2.73,0,0,0,191,39.08a8.09,8.09,0,0,0-1.59-.84c-1.15-.46-2.32-.84-3.47-1.29a6,6,0,0,1-3.26-2.64,6,6,0,0,1-.61-3.75,5.85,5.85,0,0,1,4.44-5.06,11.29,11.29,0,0,1,8,.47,5.79,5.79,0,0,1,1.09.64,1.52,1.52,0,0,1,.56,1.92,5.07,5.07,0,0,1-1.12,1.72c-.73-.4-1.41-.82-2.14-1.16a6.24,6.24,0,0,0-4.38-.39,2.31,2.31,0,0,0-.81,4.21,8.15,8.15,0,0,0,1.48.8c1.17.49,2.36.92,3.53,1.39A6.47,6.47,0,0,1,196,37.71a5,5,0,0,1,.68,2,2.67,2.67,0,0,0,.06.26Z"/><path class="cls-1" d="M69.87,55.25c-.41.22-.77.43-1.15.62a22.54,22.54,0,0,1-8.27,2.35,33.39,33.39,0,0,1-13.2-1.67c-4-1.26-9-3.67-11.36-5.72a13.35,13.35,0,0,1-3.61-5.61,1.45,1.45,0,0,1,0-.57.55.55,0,0,1,.78-.53,45.67,45.67,0,0,0,6.36,1.2,36.23,36.23,0,0,0,7.26.11,28.51,28.51,0,0,0,8.58-2.09l.09,0C59.06,48.6,64.11,52.32,69.87,55.25Z"/><path class="cls-1" d="M68.65,27.73c.93,1,1.83,2,2.73,3A31.54,31.54,0,0,1,75,35.4a13.25,13.25,0,0,1,2,8.3,15.57,15.57,0,0,1-3.25,8.09,13.56,13.56,0,0,1-2.44,2.5.39.39,0,0,1-.33.05,40,40,0,0,1-11.24-7.81c-1.08-1.1-2-2.34-3-3.51-.15-.17-.17-.29.07-.41A22.91,22.91,0,0,0,67.73,30.24C68.06,29.43,68.33,28.6,68.65,27.73Z"/><path class="cls-1" d="M154,40.31V25.47a5.88,5.88,0,0,1,2.47-.07,2.18,2.18,0,0,1,1.78,2.14c0,.14,0,.28,0,.42q0,9.46,0,18.93v.35H158c-1,0-2.09,0-3.14,0a.49.49,0,0,1-.48-.26q-4.42-6.84-8.85-13.67l-.24-.36V47.22H141V25.48c.3,0,.61-.11.93-.12a14.38,14.38,0,0,1,1.63,0,2.5,2.5,0,0,1,2,1.32c.53.85,1.05,1.71,1.58,2.57l6.66,10.88.16.24Z"/><path class="cls-1" d="M126.91,39v8.19h-4.46V25.53c.84-.07,1.68-.17,2.52-.2,1.51,0,3-.1,4.52-.06a12,12,0,0,1,4.24.81,5.35,5.35,0,0,1,3.54,5,7.84,7.84,0,0,1-.43,3.33,6.05,6.05,0,0,1-3.31,3.49l-.17.07-.2.09,5.36,9a5.65,5.65,0,0,1-1.9.51,7.1,7.1,0,0,1-1.5,0,3.31,3.31,0,0,1-2.37-1.61c-.47-.72-.9-1.48-1.34-2.22q-1.3-2.19-2.58-4.4a.41.41,0,0,0-.42-.24C127.93,39,127.44,39,126.91,39Zm0-3a25,25,0,0,0,2.86-.21,3.14,3.14,0,0,0,2.74-2.57,7.51,7.51,0,0,0,.09-1.8,2.9,2.9,0,0,0-2.41-2.91,9.22,9.22,0,0,0-3-.12c-.25,0-.32.09-.32.34,0,2.31,0,4.63,0,6.94Z"/><path class="cls-1" d="M113.63,25.46a8,8,0,0,1,2.42-.1,2.26,2.26,0,0,1,2,2.37q0,4.9,0,9.81c0,1.11,0,2.21-.11,3.32a6.72,6.72,0,0,1-5.6,6.57,12.84,12.84,0,0,1-6-.05,6.08,6.08,0,0,1-4.76-4.87,16.42,16.42,0,0,1-.41-3.74q0-6.52,0-13c0-.09,0-.18,0-.27a7.65,7.65,0,0,1,2.38-.1,2.27,2.27,0,0,1,2.06,2.41c0,3.63,0,7.26,0,10.9a13.81,13.81,0,0,0,.24,2.61,3.09,3.09,0,0,0,2.91,2.57,6.31,6.31,0,0,0,2.25-.12,2.85,2.85,0,0,0,2-1.57,7,7,0,0,0,.61-3.14q0-6.59,0-13.19C113.63,25.71,113.63,25.59,113.63,25.46Z"/><path class="cls-1" d="M180.8,47.24h-.37c-1.3,0-2.6,0-3.89,0a.42.42,0,0,1-.48-.35c-.53-1.57-1.09-3.13-1.62-4.7-.07-.21-.16-.3-.39-.3q-3.47,0-6.94,0a.35.35,0,0,0-.4.29c-.52,1.58-1.06,3.16-1.58,4.74a.37.37,0,0,1-.42.31c-1.27,0-2.53,0-3.8,0h-.31l.2-.59Q164.41,36.35,168,26a.6.6,0,0,1,.44-.43,7,7,0,0,1,3.07-.26,2.7,2.7,0,0,1,2.25,1.9l4.32,12.31,2.57,7.3Zm-7.32-8.61-2.83-9.17h-.07l-2.92,9.16Z"/><path class="cls-1" d="M89.28,37.46v9.76H84.84V25.42h13.3c.28,0,.4.07.4.36s.06.79,0,1.17a2,2,0,0,1-2,1.92c-.28,0-.56,0-.84,0H89.29V34h7v3.47Z"/></svg>