<svg id="Camada_1" data-name="Camada 1" xmlns="http://www.w3.org/2000/svg" viewBox="0 0 229 63"><defs><style>.cls-1{fill:#fff;}</style></defs><title>Icones</title><path class="cls-1" d="M120.58,23.84a11.41,11.41,0,0,1,3.4.46,10.74,10.74,0,0,1,3,1.3l1.66-5.09.11-.36-.11,0A30.8,30.8,0,0,0,124,18.94a23.11,23.11,0,0,0-4.43-.42,20,20,0,0,0-7.19,1.15,14.65,14.65,0,0,0-5.4,3.55,14.3,14.3,0,0,0-3.07,4.9,16.32,16.32,0,0,0-1.12,6c0,4,1.2,7.09,3.58,9.27s5.65,3.42,9.89,3.42a23,23,0,0,0,3.6-.29c1.2-.18,2.51-.41,3.82-.73l.7-6.22a19.54,19.54,0,0,1-3.32,1.22,12.23,12.23,0,0,1-3.17.42,8,8,0,0,1-5.6-1.87,6.31,6.31,0,0,1-2.05-5A10.49,10.49,0,0,1,113,26.59,10.28,10.28,0,0,1,120.58,23.84Z"/><path class="cls-1" d="M178.2,25.84a5.75,5.75,0,0,0-2.43-5q-2.44-1.68-7.27-1.68H158.33l-4.75,22.52h0l-.93,4.42h7l2.24-10.74h1.3a4,4,0,0,1,2.24.47,2.34,2.34,0,0,1,1,1.58l.44,2,1.47,6.67h7.09l-2-9.14a7.48,7.48,0,0,0-1-2.7,5.27,5.27,0,0,0-1.69-1.58,8.63,8.63,0,0,0,5.47-2.1A6.07,6.07,0,0,0,178.2,25.84Zm-8.77,3.63a5.62,5.62,0,0,1-2.54.86,11.19,11.19,0,0,1-1.33.08H163l1.25-6.3h2.85a4.45,4.45,0,0,1,2.75.7,2.35,2.35,0,0,1,.93,2.1A2.84,2.84,0,0,1,169.42,29.47Z"/><path class="cls-1" d="M146.32,23.84a11.41,11.41,0,0,1,3.4.46,10.74,10.74,0,0,1,3,1.3l1.66-5.09.11-.36-.11,0a30.8,30.8,0,0,0-4.64-1.17,23.11,23.11,0,0,0-4.43-.42,20,20,0,0,0-7.19,1.15,14.65,14.65,0,0,0-5.4,3.55,14.3,14.3,0,0,0-3.07,4.9,16.32,16.32,0,0,0-1.12,6c0,4,1.2,7.09,3.58,9.27s5.65,3.42,9.89,3.42a23,23,0,0,0,3.6-.29c1.2-.18,2.51-.41,3.82-.73l.7-6.22a19.54,19.54,0,0,1-3.32,1.22,12.23,12.23,0,0,1-3.17.42,8,8,0,0,1-5.6-1.87,6.31,6.31,0,0,1-2.05-5,10.49,10.49,0,0,1,2.72-7.68A10.28,10.28,0,0,1,146.32,23.84Z"/><path class="cls-1" d="M71.51,49.17c-3.89-1.43-6.93-4.53-6.93-9.25,0-4.23,3-7.4,6.84-9.08l.08,0A8.71,8.71,0,0,0,77.1,23c0-3.42-2.25-6.35-5.59-7.92a13.13,13.13,0,0,0-5.59-1.2c-9.13,0-15,9.45-15.12,17.8a20.64,20.64,0,0,0,6.32,14.73,21,21,0,0,0,2,1.7c-3.09-2.91-5.19-8-5.19-14s3.68-15.62,11.61-15.62A4.19,4.19,0,0,1,70,22.52c.11,3.28-2.29,3.59-4.57,4.82-3.9,2.17-5.54,4.12-6.84,8.29-2.08,6.46,2.8,16.49,12.92,16.59h.34a21.4,21.4,0,0,0,5.78-.92,20.73,20.73,0,0,0,5.27-2.49A15.18,15.18,0,0,1,71.51,49.17Z"/><path class="cls-1" d="M83.87,14.91c3.09,2.9,5.2,7.93,5.2,14S85.39,44.46,77.46,44.46a4.23,4.23,0,0,1-4.42-4c-.11-3.31,2.31-3.6,4.55-4.85,3.9-2.13,5.54-4.13,6.88-8.25,2-6.46-2.8-16.45-12.83-16.56h-.2A20.51,20.51,0,0,0,60.11,14.2a15.24,15.24,0,0,1,11.4-.39c3.89,1.42,6.92,4.52,6.92,9.24,0,4.18-2.78,7.3-6.62,8.94a3.2,3.2,0,0,0-.31.13A9.44,9.44,0,0,0,66,40.26c0,3.46,2.23,6.32,5.56,7.82A13.53,13.53,0,0,0,77,49.2c9.17,0,15.14-9.56,15.23-17.9A20.61,20.61,0,0,0,83.87,14.91Z"/></svg>