<svg id="Camada_1" data-name="Camada 1" xmlns="http://www.w3.org/2000/svg" viewBox="0 0 229 63"><defs><style>.cls-1,.cls-2{fill:#fff;}.cls-2{fill-rule:evenodd;}</style></defs><title>Icones</title><path class="cls-1" d="M210.63,56.47H18.38v-.8H210.63Zm0-49.14H18.38V6.53H210.63Z"/><path class="cls-2" d="M18.38,13V50h36V13ZM52.17,44.1H20.57V36.61H30.94v1.87H41.8V36.61H52.17ZM41.8,35.24l-5.49-6.61-5.37,6.61H20.57L36.31,16.41,52.17,35.24Z"/><path class="cls-2" d="M86,39.23c0,6.24,3.9,11.23,10.37,11.23s10.49-5,10.49-11.23c0-6.48-3.9-11.47-10.49-11.47S86,32.75,86,39.23Zm4.64,0c0-3.87,1.59-7.48,5.73-7.48s5.86,3.62,5.86,7.48c0,3.62-1.59,7.24-5.86,7.24s-5.73-3.62-5.73-7.24Z"/><path class="cls-2" d="M127.67,35.49c-.61-5-4.51-7.73-9.15-7.73-6.59,0-10.37,5-10.37,11.47,0,6.24,3.78,11.23,10.37,11.23,5.24,0,8.9-3.49,9.39-8.86H123.4c-.37,2.87-2,4.87-4.88,4.87-4.15,0-5.74-3.62-5.74-7.24,0-3.87,1.59-7.48,5.74-7.48a4.56,4.56,0,0,1,4.64,3.74Z"/><polygon class="cls-2" points="129.5 49.96 134.14 49.96 134.14 40.6 142.8 40.6 142.8 49.96 147.44 49.96 147.44 28.26 142.8 28.26 142.8 36.61 134.14 36.61 134.14 28.26 129.5 28.26 129.5 49.96 129.5 49.96"/><polygon class="cls-2" points="155.61 49.96 160.25 49.96 160.25 32.25 166.59 32.25 166.59 28.26 149.27 28.26 149.27 32.25 155.61 32.25 155.61 49.96 155.61 49.96"/><polygon class="cls-2" points="168.42 49.96 173.05 49.96 173.05 28.26 168.42 28.26 168.42 49.96 168.42 49.96"/><polygon class="cls-2" points="176.96 49.96 192.94 49.96 192.94 45.97 181.59 45.97 181.59 40.6 191.84 40.6 191.84 36.86 181.59 36.86 181.59 32.25 192.69 32.25 192.69 28.26 176.96 28.26 176.96 49.96 176.96 49.96"/><polygon class="cls-2" points="195.62 49.96 200.26 49.96 200.26 40.98 209.16 40.98 209.16 37.24 200.26 37.24 200.26 32.25 210.5 32.25 210.5 28.26 195.62 28.26 195.62 49.96 195.62 49.96"/><polygon class="cls-2" points="66.44 49.96 71.07 49.96 71.07 40.6 79.61 40.6 79.61 49.96 84.25 49.96 84.25 28.26 79.61 28.26 79.61 36.61 71.07 36.61 71.07 28.26 66.44 28.26 66.44 49.96 66.44 49.96"/></svg>