<svg id="Camada_1" data-name="Camada 1" xmlns="http://www.w3.org/2000/svg" viewBox="0 0 229 63"><defs><style>.cls-1{fill:#fff;}</style></defs><title>Icones</title><path class="cls-1" d="M151.77,14.92c3.26,0,6.44,0,9.62,0a2.31,2.31,0,0,1,2.33,2.48c0,.39,0,.78,0,1.49.5-.4.82-.63,1.12-.89,6.13-5.2,18.85-4.46,22.73,5.51a11.88,11.88,0,0,1,.74,4.08c.08,6.24,0,12.48,0,18.71,0,1.49-.27,1.79-1.73,1.8-3.05,0-6.11,0-9.16,0-.94,0-1.17-.33-1.17-1.21q0-8.11,0-16.23A6.28,6.28,0,0,0,169,24.3a6.07,6.07,0,0,0-5.16,5.49c-.19,3-.1,6-.11,9,0,2.57,0,5.15,0,7.72,0,.85-.2,1.55-1.15,1.56-3.57,0-7.14,0-10.81,0Z"/><path class="cls-1" d="M125.54,34.31c-.07,3,1.64,5.84,4,6.76a6.94,6.94,0,0,0,7.84-2,1.67,1.67,0,0,1,1.06-.55q4-.07,8,0c1.39,0,1.83.88,1.1,2.1a14,14,0,0,1-8,6.23,25.8,25.8,0,0,1-16.33,0c-6-2-9.81-7.32-10.1-14a19.86,19.86,0,0,1,1.1-8,14.11,14.11,0,0,1,9.91-8.94,25.16,25.16,0,0,1,16.07.53c7.09,2.72,9.84,9.2,9.55,15.6-.07,1.53-1.18,2.32-3.07,2.33H125.54ZM139,28.8c-.4-5.06-3.28-7.72-7.75-7.28a6.64,6.64,0,0,0-5.61,7.28Z"/><path class="cls-1" d="M52.95,34.31c.42,2.77,1.14,5.16,3.63,6.51a7,7,0,0,0,8.33-1.68,1.78,1.78,0,0,1,1.15-.6c2.62-.05,5.24,0,7.85,0,1.46,0,1.92.89,1.15,2.17a13.13,13.13,0,0,1-6.42,5.57,24.52,24.52,0,0,1-19.11,0,13.45,13.45,0,0,1-8-9,19.36,19.36,0,0,1,.41-12.83,13.88,13.88,0,0,1,9.6-8.57,25.13,25.13,0,0,1,15.82.33c5.86,2.13,9,6.45,9.84,12.56.08.61.13,1.21.2,1.82.29,2.4-.81,3.67-3.21,3.68q-9.82,0-19.64,0ZM66.5,28.79c-.21-4.5-2.82-7.27-6.75-7.29S53.26,24.15,53,28.79Z"/><path class="cls-1" d="M91.19,15.09c0,.52.06,1,.06,1.46,0,9.94,0,19.89,0,29.83,0,1.22-.27,1.68-1.58,1.64-2.92-.1-5.84-.06-8.76,0-1.18,0-1.61-.46-1.6-1.64,0-9.51,0-19,0-28.52,0-2,.85-2.84,2.87-2.85,2.79,0,5.58,0,8.37,0A5.16,5.16,0,0,1,91.19,15.09Z"/><path class="cls-1" d="M92.67,48c-.06-.77-.1-1.14-.11-1.51,0-3.88,0-7.77,0-11.65a3.56,3.56,0,0,1,.68-2c4-5.09,8-10.14,12-15.19a6.64,6.64,0,0,1,5.67-2.7c2.53.07,5.05,0,7.92,0Z"/></svg>