<svg id="Camada_1" data-name="Camada 1" xmlns="http://www.w3.org/2000/svg" viewBox="0 0 229 63"><defs><style>.cls-1{fill:#fff;fill-rule:evenodd;}</style></defs><title>Icones</title><path class="cls-1" d="M115.66,26.28c1.68-.44,2.26,0,2,1.5-2,9.64-7.88,16.83-16.76,22a.85.85,0,0,1-1.38-.69,90.23,90.23,0,0,1-.79-13.48,1.78,1.78,0,0,1,1.73-1.78c2.39-.21,4.8-.14,7.2-.22s3.75-1.44,4.48-3.75a4.93,4.93,0,0,1,3.57-3.57ZM61.57,31c1.64-.17,3,1,3.86,3.39,1,2.88,3.77,3.26,7.87,2.44,1.78-.36,3.59-.52,5.37-.84,1.23-.22,1.76.14,1.8,1.21A124.78,124.78,0,0,1,80,56.81c-.17,1.35-1,2.2-2.16,1.35C67.3,50.08,61.73,41.71,59.59,33.54c-.41-1.58.58-2.36,2-2.51Zm67.83-5.12c.93-.18,1.71.1,1.72,1,.08,3.67,0,7.34,0,11,0,2.45-.73,4.15-2.27,5.24s-4.85,1-5.45-.87a1.36,1.36,0,0,1,.06-.9c.12-.3.33-.41.76-.26,2.14.74,3.77-.41,3.77-2.28,0-3.75,0-7.51-.06-11.26a1.63,1.63,0,0,1,1.51-1.65Zm31.23,0c.93-.18,1.7.1,1.72,1,.08,3.67,0,7.34,0,11,0,2.45-.73,4.15-2.27,5.24s-4.85,1-5.45-.87a1.37,1.37,0,0,1,.06-.9c.11-.3.33-.41.75-.26,2.15.74,3.78-.41,3.77-2.28,0-3.75,0-7.51-.06-11.26a1.63,1.63,0,0,1,1.51-1.65Zm-24.58.27c.91-.49,1.68-.43,2.06.4L143,36.84c.46,1,1.12.87,1.58-.08l4.59-9.52a2.51,2.51,0,0,1,2-1.45c.81-.12,1.3.23,1.3,1.09V42.13c0,1-.6,1.73-2,1.8-.73,0-1-.36-1-.87l.12-10.8-3,6.33a3.39,3.39,0,0,1-2.75,1.83,3.47,3.47,0,0,1-3-2.13l-3.06-6.09,0,9.78c0,.94-.67,1.58-1.84,1.73-.78.1-1.21-.18-1.21-.66l.23-15A2.11,2.11,0,0,1,136.06,26.18Z"/><path class="cls-1" d="M75.08,9.15,78,9.1c.72,0,1.08.18,1.08,1.06a1.34,1.34,0,0,1-1.45,1.52l-2.24,0,.12,7.07a1.71,1.71,0,0,1-1.85,2c-1.41,0-1.94-.62-1.9-1.76L72,11.8H69.33c-.85,0-1.17-.82-1.2-1.61,0-.51.18-.85.82-.86l3.25-.07,0-2.21c0-.7.55-1.12,1.53-1.22C74.42,5.76,75,6,75,7.09l0,2.06ZM90.4,12.73C85.27,2.35,73.65-2,65.52,4.08,61,7.46,58.18,13.09,58,21.88a1.66,1.66,0,0,0,1.7,1.87c7.85.57,15.68.36,23.35-1.75a2.36,2.36,0,0,0,1.7-2.54c.07-5,2-7.25,5.65-6.73Zm1.47.4c1.51,1.07,2.07,3.12,1.75,5.82-.19,1.59.36,2.42,1.92,2.43A109,109,0,0,0,114.88,20c1.47-.25,1.89-1.15,1.36-2.37-2.16-5-6-6.9-9.84-8-5.15-1.49-9.81,0-14.52,3.48Zm49.84,38.59a.8.8,0,0,1,0-1.17,5,5,0,0,1,3.61-1.26c1.75,0,3.53,1.1,3.51,2.86s-1.51,3.61-3.64,5.64c-.18.17-.12.33.1.34,1.14,0,2.27,0,3.41,0,.43,0,.79.12.58.69a1.41,1.41,0,0,1-1.4,1h-5.38a.76.76,0,0,1-.83-.57,1.18,1.18,0,0,1,.35-1.1c2-1.85,3.85-3.3,4.74-5.24a1.4,1.4,0,0,0-.76-2c-1-.41-2,.11-3.05.83-.55.38-.95.26-1.2,0Zm12.38-2.65c-2.78,0-4.64,2.43-4.64,5.43s1.84,5.43,4.64,5.43,4.67-2.16,4.64-5.43-1.86-5.43-4.64-5.43Zm0,1.69c1.48,0,2.68,1.68,2.68,3.74s-1.2,3.74-2.68,3.74-2.68-1.67-2.68-3.74,1.2-3.74,2.68-3.74Zm7.41-1.27c.54-.05.92.31.92,1v8.28a1.28,1.28,0,0,1-1.12,1.31.86.86,0,0,1-.92-1V50.68a1.17,1.17,0,0,1,1.12-1.19Zm3,8.35c-.37-.1-.59.07-.58.5,0,1.23.93,1.49,3,1.5s3.45-.71,3.93-2.06a2.46,2.46,0,0,0-1.13-3.22c-.12-.07-.13-.16,0-.21a2.53,2.53,0,0,0,.41-4.2c-1.63-1.23-3.41-1.09-5.17-.74-.57.12-.69.49-.77,1s-.06.85.55.74a6.25,6.25,0,0,1,3.78.07,1.28,1.28,0,0,1-.26,2.3,4.94,4.94,0,0,1-2,.16c-.55,0-.92.32-.58,1a1,1,0,0,0,1.12.59,2.14,2.14,0,0,1,1.94.48A1.35,1.35,0,0,1,168,58,6,6,0,0,1,164.48,57.83Z"/><path class="cls-1" d="M115.83,60c-.72.06-1-.35-1-.83,0-3.4,0-6.81.08-10.21a1.93,1.93,0,0,1,1.54-2.06c2.52-.6,5.16-.57,6.86.28a3,3,0,0,1,1.83,2.64c.06,1.58-1,3-3.23,4.32,1.11,1.52,2.26,3,3.34,4.56.47.67,0,1.21-.79,1.25a2.56,2.56,0,0,1-2.3-1.21,45.64,45.64,0,0,1-3-4.33.84.84,0,0,1,.2-1.21A20.47,20.47,0,0,0,121.56,52a2.19,2.19,0,0,0,.94-2.2,1.65,1.65,0,0,0-1.56-1.14,8.13,8.13,0,0,0-1.91.06c-1.06.13-1.59.59-1.61,1.39,0,2.87,0,5.73-.07,8.6,0,.72-.58,1.18-1.53,1.26Zm10.9-8.32A1.31,1.31,0,0,1,128,50.29a.93.93,0,0,1,1,1v7.33c0,.73-.41,1.25-1.35,1.37a1,1,0,0,1-1-1V51.64Zm8.39.23c1.61,0,2.46,1.37,2.46,3.05S136.73,58,135.12,58s-2.46-1.37-2.46-3.05.85-3.05,2.46-3.05Zm0-2a4.78,4.78,0,0,0-4.93,5.09,4.93,4.93,0,1,0,9.85,0,4.78,4.78,0,0,0-4.93-5.09ZM117.65,22.91c.6-.95-.22-1.57-.65-1.46-6.25,1.67-15.36,2.27-23.75,2.06-.81,0-1.44-.32-1.49-1.26-.08-1.55-.08-3.1-.09-4.65,0-1.83-.75-2.93-2.28-2.87-1.25.05-2.23.87-2.38,2.61a36.74,36.74,0,0,0-.1,3.95c.05,1.93-1,2.8-3.22,3.13a170.94,170.94,0,0,1-24.47,2.12c-1,0-1.41.44-.95,1.31s1,1.31,2.68,1.27c1,0,1.92-.07,2.87-.07a2.62,2.62,0,0,1,2.65,1.63c1,2.43,2.29,4.1,4.8,3.85,3.16-.31,6.31-.73,9.47-1.34,1.2-.23,2,.31,2,1.84,0,7.44-.05,14.89-.08,22.33,0,2.36,1,3.31,3.54,2.13,3.23-1.52,4.29-4,4.33-7.22.07-5.36.37-10.72.7-16.08.06-1.06,0-1.84-.83-2.12-.52-.18-1-.33-1.56-.5-.7-.23-1,.09-1,1,0,3.64.14,7.29,0,10.93-.09,1.85-2,1.83-2-.22-.09-3.68-.1-7.36,0-11,0-1.85-1.18-2-3-2.85a18,18,0,0,1-3.94-2.17.93.93,0,0,1,1-1.57c3,1.56,6,3.31,10.1,3.81,1,.12,1.65-.18,1.61-1.22,0-.83-.06-1.67,0-2.5.09-1.5,1.79-1.45,1.79,0,0,8.23-.42,16.46-.49,24.69,0,.74.72,1,1.65.65a10.2,10.2,0,0,0,1.48-.78A1.64,1.64,0,0,0,97,50.64c-.2-5.92-.54-11.84-.7-17.75,0-.76.35-1.3,1.2-1.27a84.11,84.11,0,0,0,9.53-.09c1.9-.15,2.87-1.35,3.37-3.34a4.54,4.54,0,0,1,4-3.47,4.29,4.29,0,0,0,3.25-1.8Zm10.73,26.15a1.1,1.1,0,0,0,.71-1.42,1.24,1.24,0,0,0-1.62-.4,1.1,1.1,0,0,0-.71,1.42A1.24,1.24,0,0,0,128.38,49.05Z"/></svg>