<svg id="Camada_1" data-name="Camada 1" xmlns="http://www.w3.org/2000/svg" viewBox="0 0 229 63"><defs><style>.cls-1{fill:#fff;fill-rule:evenodd;}</style></defs><title>Icones</title><path class="cls-1" d="M37.93,36a9.35,9.35,0,0,0-3.28-.52,7.76,7.76,0,0,0-4.49,1.42,9.5,9.5,0,0,0-1.49,1.21,8.77,8.77,0,0,0,0,12A8,8,0,0,0,31,51.77a7.6,7.6,0,0,0,3.66.93H63.18L41.08,37.81c-.55-.35-1-.69-1.49-.93a10.27,10.27,0,0,0-1.66-.9Z"/><path class="cls-1" d="M47.36,19.19a4.39,4.39,0,0,1-.66-.45,8.41,8.41,0,0,0-6.42-1.14,8.22,8.22,0,0,0-3.52,1.59,8.62,8.62,0,0,0-1.14,1.11c-.24.28-.45.59-.66.86a8.31,8.31,0,0,0-1.17,2.35,7.8,7.8,0,0,0-.21,4,9.87,9.87,0,0,0,1.21,3.21A7.44,7.44,0,0,0,37,33l24.9,17L50.71,24.31c-.14-.28-.24-.55-.35-.79A15.51,15.51,0,0,0,49.12,21c-.17-.21-.35-.45-.55-.69a9.39,9.39,0,0,0-1.21-1.11Z"/><path class="cls-1" d="M60.83,6.83a4.93,4.93,0,0,0-.76-.24,8.06,8.06,0,0,0-4.25,0,12.17,12.17,0,0,0-1.45.52,8,8,0,0,0-4.46,4.63c0,.1-.1.24-.14.35A8.38,8.38,0,0,0,50,18.3l12.19,28,4-28.29a20.38,20.38,0,0,0,.31-3.59A8.63,8.63,0,0,0,66,12.08c-.07-.28-.21-.55-.31-.86a8.21,8.21,0,0,0-4.87-4.39Z"/><path class="cls-1" d="M95,36.88c-.45.24-.93.59-1.49.93L71.37,52.7H99.9a8.16,8.16,0,0,0,4.8-1.59,14.11,14.11,0,0,0,1.17-1l.24-.24a7.92,7.92,0,0,0,1.9-3.45,6.79,6.79,0,0,0,.24-1.21c0-.35,0-.73,0-1.07a8.13,8.13,0,0,0-1.59-5,7.5,7.5,0,0,0-.83-1,9.69,9.69,0,0,0-1.52-1.21,7.17,7.17,0,0,0-1.9-1,8.09,8.09,0,0,0-2.56-.41,9,9,0,0,0-3.25.52,10.38,10.38,0,0,0-1.69.9Z"/><path class="cls-1" d="M84.77,12.08c0-.1-.1-.24-.14-.35A8.15,8.15,0,0,0,80.18,7.1a12.22,12.22,0,0,0-1.45-.52,8.06,8.06,0,0,0-4.25,0,4.93,4.93,0,0,0-.76.24,8.32,8.32,0,0,0-4.87,4.39c-.1.31-.24.59-.34.86a8.49,8.49,0,0,0-.41,3.7v.17H70.4c.69.07,1.14.17,1.24.35s-.17.45-.93.76l-.59.38L69.4,18a2.12,2.12,0,0,0-.59,1.17,3.81,3.81,0,0,0-.07,1.11,2.8,2.8,0,0,0,0,.52l3.63,25.49,12.23-28a8.37,8.37,0,0,0,.14-6.22Z"/><path class="cls-1" d="M101.14,25.58a8.51,8.51,0,0,0-1.52-4.42c-.21-.28-.41-.59-.66-.86a8.64,8.64,0,0,0-1.14-1.11,8.14,8.14,0,0,0-3.56-1.59,8.41,8.41,0,0,0-6.42,1.14,7.37,7.37,0,0,1-.66.45A12.25,12.25,0,0,0,86,20.3a4.4,4.4,0,0,0-.55.69,21.16,21.16,0,0,0-1.62,3.32L72.61,50l24.9-17a7.44,7.44,0,0,0,2.25-2.28.55.55,0,0,0,.14-.24,8.71,8.71,0,0,0,.76-1.73c.1-.38.24-.83.31-1.24a7.46,7.46,0,0,0,.17-1.93Z"/><path class="cls-1" d="M159.16,23.2v7.57h3.71a3.19,3.19,0,0,0,2.59-1.24,4.37,4.37,0,0,0,1-2.91,3.32,3.32,0,0,0-1.2-2.39,3.4,3.4,0,0,0-2.51-1Zm0,13.19v8.25h4.26a6.87,6.87,0,0,0,3.59-.92,3.1,3.1,0,0,0,1.59-2.87c0-2.75-1.75-4.26-5.18-4.46Zm43.55-19.25v7.57A12.35,12.35,0,0,0,197.09,23a23.36,23.36,0,0,0-2.35.24,11.65,11.65,0,0,0-7.05,3.63A10.28,10.28,0,0,0,184.9,34a9.91,9.91,0,0,0,2.59,6.85,11.6,11.6,0,0,0,6.57,3.75,12.13,12.13,0,0,0,2.71.24,12.63,12.63,0,0,0,5.94-1.79v8.29a18.26,18.26,0,0,1-6.41,1.2,17,17,0,0,1-2.23-.08,21.64,21.64,0,0,1-9.24-3,18.18,18.18,0,0,1-6.61-6.73,18.45,18.45,0,0,1-2.47-9.44,17.34,17.34,0,0,1,2.71-8.81,18,18,0,0,1,6.69-6.26,20.67,20.67,0,0,1,9.16-2.59,22,22,0,0,1,8.41,1.47ZM127.76,51.37h-7.37V15.67L140.75,34V17.15h7.57V52.49L127.76,33.32v18Zm23.95,0V17.15h14.74a8.22,8.22,0,0,1,5.1,2.43,8.06,8.06,0,0,1,2.27,5.18c0,3.55-1.31,6.14-4,7.81a9,9,0,0,1,5.9,8.41,10.46,10.46,0,0,1-2.63,7.13,9.48,9.48,0,0,1-6.65,3.27Z"/></svg>