<svg id="Camada_1" data-name="Camada 1" xmlns="http://www.w3.org/2000/svg" viewBox="0 0 229 63"><defs><style>.cls-1{fill:#fff;}</style></defs><title>Icones</title><path class="cls-1" d="M110.31,11.75V10.33h76.32v1.42Zm-49.2-1.3H77.74c1.91,0,4.89-.49,6.32.54a9.13,9.13,0,0,1,2.1,3l3.11,5.38c.57.95,2.74,4,2.25,5s-5.3,1.5-6.49,1.49c-3.71-.05-3.71-6.86-6.56-7L65,19c-.57.18-.86.83-1.12,1.3-.8,1.37-2,4.38-3.4,5.2-1.07.65-7,.05-7.77-.83-.53-.63-.14-1.37.17-2,1.06-1.93,6.43-12.2,8.24-12.2v-.06h0Zm61.37,7.83c6,0,13.22,2.81,13.22,9.61l-6.86-.05h-.06c-.75-4.83-8-5-10.27-1.27-3,4.91-1.06,12.54,5.51,12.54l.55-.05.37-.07c1.89-.8,3.3-1.63,3.75-3.82l.16-.74v-.06h6.86C135,45.08,120.94,48.11,114,41c-5.59-5.76-4.7-16.87,2.49-20.9a10.49,10.49,0,0,1,4.84-1.65l.42-.06Zm26.32,0c5.52,0,11.68,1.86,11.68,8.14h-6.86c-.29-4.63-9.1-3.38-7.44-.21.61,1.15,2.33,1.45,3.48,1.77,4.52,1.23,11.58,2,11.67,8.12a7.49,7.49,0,0,1-1.78,5.37c-4.55,5-17.13,4.55-20.35-1.72-.28-.53-1.28-3.29-.73-3.82s5.71-.2,6.74-.2c.1,3.27,2.78,3.94,5.74,3.94l.5-.05.37-.07c1.12-.45,2.55-.84,2.61-2.35.14-2.85-7.53-3.76-9.65-4.51a9.72,9.72,0,0,1-4.23-2.6c-4.21-4.92,1-11.57,6.58-11.57l.43-.07.49-.06.74-.12Zm14.9.5c1.19,0,6.34-.26,7,.13.89.55,1.53,2.35,2,3.23l7.2,12.17.08.19h.13V22.78c0-1-.32-2.89.13-3.74l.07-.08c.61-.49,5.12-.17,6.22-.17V44.23c-1.19,0-6.36.26-7-.14s-1.77-2.74-2.22-3.55l-7-12,0-.1h-.12V44.23h-6.49V18.78h0ZM45.17,27.16h15c2,0,5-.46,6.49.55s1.75,4.21,1.17,6.08a3,3,0,0,1-2,2c-1.91.53-4.62.16-6.73.16l-13.78,0a3.34,3.34,0,0,1-1.81-.7c-1.37-1-1.28-3.54-1.06-5.3.2-1.61,1.29-2.27,2.68-2.73Zm33.81,0H94c2,0,5-.45,6.46.53s1.76,4.25,1.19,6.13a2.92,2.92,0,0,1-2,1.94c-2.07.58-5,.16-7.28.16l-13.23,0a3.39,3.39,0,0,1-1.82-.7c-1.34-1-1.3-3.6-1-5.35.24-1.58,1.26-2.23,2.68-2.68ZM58.65,37c4.38.15,3.81,7,7.23,7h9.89c1,0,2.63.26,3.47-.15.62-.3.94-1.19,1.25-1.74,2.27-3.9,2.06-5.6,7.4-4.72,1.14.18,4,.08,3.73,1.83-.19,1.2-6.75,12.21-7.71,12.8-1.27.78-22.38.79-23.7,0-1-.55-7.58-11.67-7.77-12.86a1.32,1.32,0,0,1,1.45-1.43l.37-.05.43-.07.37-.07.43-.06.37-.05.43-.06.37-.07.44-.05.74-.13.43-.05.37-.13Zm51.67,15.23V50.89h76.32v1.36H110.31Z"/></svg>