<svg id="Camada_1" data-name="Camada 1" xmlns="http://www.w3.org/2000/svg" viewBox="0 0 229 63"><defs><style>.cls-1{fill:#fff;fill-rule:evenodd;}</style></defs><title>Icones</title><path class="cls-1" d="M46.08,22.29q-5.41,6.21-2.08,20,1.57,3.67-1.4,5.77-3.27,2-4-2.19c-1.29-7.44-1.7-16,1.9-22.84q5.88-11.24,18.37-10Q68,14.65,66.91,23.65,64.63,33.06,52.65,35.8q5.27,13.47,11.62,5.89a123.54,123.54,0,0,0,8.38-10.34q4.1-1,3.47,2.57-1.8,15,3.77,8.83,4.37-7.11,7.47-12.24c1.26-2.08,1.48-2.65,3.68-4,10.29-6.12,20.76,7.83,12.55,18.85q-8.36,8.89-16-1.21a32.1,32.1,0,0,1-2.26-4.75q-12.93,20.42-14.94-.15Q57,59.12,49,40.63q-4-8.47,1.58-9.43,6.82-.84,9.68-3c4.06-3.12,1.92-7.5-2.13-9.41q-6.32-3-12.07,3.55ZM158,47.57,157.86,30q-2.8,1.46-3.09-.53-.35-1.61,1.58-2.72l3.92-2.64q2.79-1.4,2.72,1.51V41.76a62.35,62.35,0,0,1,6.34-6.94q.79-12.35,15.47-20.53c2.15-1.13,3.55,1.83,1.17,3.17-7.51,4.95-10.84,9-11.74,14.11q11.7-6.51,16.08,1.81,3.22,8-3.47,13.74c-6.52,5.25-15,2.18-17.59-7.4L160.8,48.4Q158,50,158,47.57Zm16-11.92c1.75,6.74,5.66,9.83,9.33,8.51,2.71-1,4.77-3.81,3.26-6.65-1.68-3.16-7.26-4.93-12.59-1.86ZM142.14,24.78c-6.06,0-11.39,5.66-11.91,12.64,0,.14,0,.29,0,.43A12.79,12.79,0,0,1,122,44c-4.48,1-9.33-.54-4.78-5.38,5.69-4.23,9.79-8,12-13,2.67-5.08.79-10-4.68-12-5.69-1.74-13.34,1.68-14.57,6.19-.35,2,2.27,2.22,4.45.3a6.89,6.89,0,0,1,8.3-1q4.48,4.08-.76,10.62c-3.75,4.68-11.94,7.85-12.14,14,0,7.56,12.8,8.07,21-1l.06-.11c1.4,4.38,5,7.42,9.45,7.42,6.06,0,11.39-5.66,11.91-12.64s-4-12.64-10-12.64Zm-2,5.5c3.6,0,7,3.19,7.65,7.14s-1.78,7.14-5.38,7.14-7-3.19-7.65-7.14,1.78-7.14,5.38-7.14ZM75.67,21a3.55,3.55,0,1,0,3.55,3.55A3.55,3.55,0,0,0,75.67,21Zm17.85,9c-2.77,0-4,3.16-2.75,7.06S95.28,44.1,98,44.1s4-3.16,2.75-7.06S96.29,30,93.52,30Z"/></svg>