<svg id="Camada_1" data-name="Camada 1" xmlns="http://www.w3.org/2000/svg" viewBox="0 0 229 63"><defs><style>.cls-1{fill:#fff;}</style></defs><title>Icones</title><polygon class="cls-1" points="75.11 49.61 32.95 49.61 54.28 13.26 57.67 20.05 43.61 44.76 64.45 44.76 59.61 35.55 56.21 40.4 49.91 40.4 59.61 23.92 75.11 49.61"/><path class="cls-1" d="M94.5,33.45l10.44.06v14a12.47,12.47,0,0,1-4.3,1.62,35.36,35.36,0,0,1-8.08.49c-4.2-.16-6.72-.21-10-3.07a14.56,14.56,0,0,1-5-10.82c0-4.36.48-7.27,2.42-10.66,2.26-4,7.11-6.25,10.66-6.78a31.08,31.08,0,0,1,9.85.1,13.33,13.33,0,0,1,4.2,1.45V25l-1.39-.55s-5.23-1.58-8.47-1.55c-4.2,0-7.5,1.55-9.11,4a11.19,11.19,0,0,0-2,6.72c0,2.26.65,5.95,2.75,7.88a12.25,12.25,0,0,0,8.24,2.94A8.85,8.85,0,0,0,99,43.63V37.88L94.5,38Z"/><path class="cls-1" d="M128.1,33.42a7.37,7.37,0,0,0-2.1-4,7.92,7.92,0,0,0-5-2.2,18.49,18.49,0,0,0-4.84,0s-2.59.61-3.39.94a4.05,4.05,0,0,0-1.45,1.2l.1,3.36a17.67,17.67,0,0,1,6-1.55c4-.1,5.05,1.85,5,2.75s0,1.68,0,1.68-4,.16-5.82.32-5.49.81-7.11,2.42-1.94,3.39-1.94,5.65c0,3.39,3.07,5.65,7.75,5.65s7.59-3.88,7.59-3.88v3.88l5.23,0,0-9.4Zm-5.49,8.4s-2.42,4-5.82,4-4.14-1.32-4.14-2.78,1.1-3.3,4-3.94a19.38,19.38,0,0,1,5.95-.23Z"/><path class="cls-1" d="M196,33.58a7.37,7.37,0,0,0-2.1-4,7.92,7.92,0,0,0-5-2.2,18.49,18.49,0,0,0-4.84,0s-2.59.61-3.39.94a4.05,4.05,0,0,0-1.45,1.2l.1,3.36a17.67,17.67,0,0,1,6-1.55c4-.1,5.05,1.85,5,2.75s0,1.68,0,1.68-4,.16-5.82.32-5.49.81-7.11,2.42-1.94,3.39-1.94,5.65c0,3.39,3.07,5.65,7.75,5.65s7.59-3.88,7.59-3.88v3.88l5.23,0,0-9.4ZM190.46,42s-2.42,4-5.82,4-4.14-1.32-4.14-2.78,1.1-3.3,4-3.94a19.38,19.38,0,0,1,5.95-.23Z"/><path class="cls-1" d="M139.25,28.77l4.52-.06v3.78l-4.52,0V49.58l-6.62,0,0-16.9-2.07.06v-4h2.36V24.25a4.2,4.2,0,0,1,1.45-3.84,4.85,4.85,0,0,1,3.52-1.58l6.82-.06,0,4.68-4.14-.16a1.26,1.26,0,0,0-1,.48,4.37,4.37,0,0,0-.48,1.29Z"/><rect class="cls-1" x="147.65" y="23.44" width="6.14" height="3.23"/><rect class="cls-1" x="147.65" y="28.16" width="5.98" height="21.49"/><path class="cls-1" d="M171.56,33.1a8.82,8.82,0,0,0-4.69-1.78c-2.42,0-4,.16-4.2,2.1s1.94,2.58,3.23,2.91,4,.68,5.62,2.13c0,0,2.13,1.29,1.81,4.65-.39,4-2,4.78-3.46,5.59s-4.14.87-6.56.87a21,21,0,0,1-5.17-.65c-.48-.16-1.45-.65-1.45-.65l0-4a11,11,0,0,0,2.94,1.45,9.28,9.28,0,0,0,4.69.16c1.45-.32,2.84-.81,2.68-2.42s-.74-2.26-2.52-2.91-3.88-1-5.49-1.94-2.26-2.42-2.42-4.52a5.07,5.07,0,0,1,2.13-4.78,10.56,10.56,0,0,1,5.88-1.68,18.43,18.43,0,0,1,5.07.65,4.4,4.4,0,0,1,1.94,1Z"/></svg>