<svg id="Camada_1" data-name="Camada 1" xmlns="http://www.w3.org/2000/svg" viewBox="0 0 229 63"><defs><style>.cls-1{fill:#fff;}</style></defs><title>Icones</title><path class="cls-1" d="M97.27,57.62h1.15V45.46H97.27Zm7.62-8.39a2.54,2.54,0,0,0-2.56,1.65V49.42h-1v8.2h1V54c0-1.72,0-2.26.51-2.94a2.19,2.19,0,0,1,1.91-.93,1.87,1.87,0,0,1,1.6.71c.31.45.31.91.31,2.51v4.26h1V53.37c0-1.77,0-2.44-.55-3.15a2.72,2.72,0,0,0-2.24-1m9,.89a2.34,2.34,0,0,1,2.22,1.38l.95-.23a3.1,3.1,0,0,0-3.13-2.07c-2.26,0-3.93,1.63-3.93,4.36,0,2.11,1.12,4.25,3.77,4.25a3.32,3.32,0,0,0,2.65-1,3.47,3.47,0,0,0,.64-1L116,55.56a2.3,2.3,0,0,1-2.2,1.38c-2.24,0-2.7-2.14-2.7-3.41,0-2.17,1.2-3.39,2.79-3.39m8.3-.91c-2.65,0-3.74,2.28-3.74,4.41,0,2.31,1.31,4.2,3.71,4.2s3.77-1.86,3.76-4.35c0-2.12-1.13-4.26-3.72-4.26m2.63,4.38c0,1.91-.86,3.34-2.67,3.34-1.41,0-2.61-.95-2.61-3.29a4.29,4.29,0,0,1,.77-2.72,2.49,2.49,0,0,1,1.9-.84c2.65,0,2.62,3,2.62,3.51m4.36-2.87V49.41h-1v8.21h1V54.08c0-1.69,0-2.53.65-3.24a2.27,2.27,0,0,1,1.69-.66,2.56,2.56,0,0,1,.62.05v-.91a3.16,3.16,0,0,0-.57-.05,2.42,2.42,0,0,0-2.4,1.44m8.08-1.48a2.78,2.78,0,0,0-2,.76,2.12,2.12,0,0,0-.5.76V49.41h-1V62h1V56.26a2.57,2.57,0,0,0,2.5,1.55c2.21,0,3.41-2,3.41-4.27,0-1.7-.76-4.31-3.42-4.31M137,56.84a2.16,2.16,0,0,1-2.18-1.79,5.74,5.74,0,0,1-.12-1.65c0-.76.09-3.24,2.31-3.24,1.74,0,2.55,1.48,2.55,3.25,0,1.36-.55,3.42-2.55,3.42m9.06-7.63c-2.65,0-3.73,2.28-3.73,4.41,0,2.31,1.31,4.2,3.7,4.2s3.77-1.86,3.75-4.35c0-2.12-1.12-4.26-3.72-4.26m2.64,4.38c0,1.91-.86,3.34-2.67,3.34-1.41,0-2.62-.95-2.62-3.29a4.31,4.31,0,0,1,.78-2.72,2.47,2.47,0,0,1,1.89-.84c2.65,0,2.62,3,2.62,3.51m4.35-2.87V49.41h-1v8.21h1V54.08c0-1.69,0-2.53.66-3.24a2.27,2.27,0,0,1,1.69-.66,2.55,2.55,0,0,1,.62.05v-.91a3.16,3.16,0,0,0-.57-.05,2.42,2.42,0,0,0-2.39,1.44M163.63,55V52.39a6.31,6.31,0,0,0-.1-1.59c-.38-1.34-1.89-1.6-2.89-1.6a3.06,3.06,0,0,0-2.75,1.28,3.3,3.3,0,0,0-.48,1.41l1.12.18c0-.86.14-2,2.15-2s2,1.31,2,1.9v.41l-1,.22c-2.58.6-4.52,1.05-4.52,2.95a2.27,2.27,0,0,0,2.58,2.23,3.1,3.1,0,0,0,2.86-1.51l.07-.17v.15c.09,1.26,1,1.36,2.2,1.36v-.81c-1.22,0-1.24-.33-1.24-1.77m-1-1.16A2.66,2.66,0,0,1,162,56a3.3,3.3,0,0,1-2.19.89c-1.16,0-1.64-.7-1.64-1.36,0-1,1-1.32,2-1.58l2-.55.51-.12Zm7.18-3.75a2.34,2.34,0,0,1,2.24,1.38l.95-.23a3.1,3.1,0,0,0-3.14-2.07c-2.26,0-3.94,1.63-3.94,4.36a4.1,4.1,0,0,0,2.1,3.92,4,4,0,0,0,1.41.33l-.58,1v.41a1.65,1.65,0,0,1,.66-.17c.53,0,.86.29.86.66,0,0,0,.67-1,.67-.19,0-.34,0-.55,0v.46l.66.05c.95,0,1.74-.53,1.74-1.41a1.1,1.1,0,0,0-1.21-1.1,2.25,2.25,0,0,0-.48.05l.31-.58A3.35,3.35,0,0,0,173,55.8L172,55.57a2.3,2.3,0,0,1-2.2,1.38c-2.26,0-2.72-2.15-2.72-3.41,0-2.18,1.22-3.41,2.79-3.41m8.3-.91c-2.65,0-3.74,2.28-3.74,4.41,0,2.31,1.31,4.2,3.7,4.2s3.77-1.86,3.76-4.35c0-2.12-1.12-4.26-3.72-4.26m2.64,4.38c0,1.91-.86,3.34-2.67,3.34-1.41,0-2.62-.95-2.62-3.29a4.27,4.27,0,0,1,.78-2.72,2.46,2.46,0,0,1,1.89-.84c2.65,0,2.62,3,2.62,3.51m-5.36-6.13.72.15c.16-.32.35-.72.78-.72a2.27,2.27,0,0,1,.89.35,3.17,3.17,0,0,0,1.35.48c.91,0,1.31-.86,1.64-1.55l-.71-.17c-.12.29-.32.74-.82.74a2.17,2.17,0,0,1-.95-.34A2.75,2.75,0,0,0,177,46c-1,0-1.45,1.07-1.62,1.5m11.95,1.75c-2,0-3.79,1.52-3.79,4.24,0,2.29,1.19,4.37,3.9,4.37a3.54,3.54,0,0,0,2.81-1.14,4.22,4.22,0,0,0,.78-1.24l-.95-.26a2.76,2.76,0,0,1-2.64,1.72A2.56,2.56,0,0,1,185,55.23a4.48,4.48,0,0,1-.26-1.71h6.37c.07-2.13-1.23-4.31-3.7-4.31m-2.65,3.48a2.65,2.65,0,0,1,2.64-2.57,2.49,2.49,0,0,1,1.7.62,3.07,3.07,0,0,1,.86,1.95ZM196,50.1a2.56,2.56,0,0,1,1.29.29,1.3,1.3,0,0,1,.71.93l1-.24a2.25,2.25,0,0,0-1-1.4,3.67,3.67,0,0,0-1.91-.47c-2.46,0-2.95,1.45-2.95,2.29,0,1.6,1.38,1.95,2.14,2.12l1,.21c.67.14,1.76.4,1.76,1.46,0,.86-.68,1.62-2.08,1.62a2.24,2.24,0,0,1-2.31-1.64l-1,.34a3.4,3.4,0,0,0,1.24,1.62,3.55,3.55,0,0,0,2.06.59c2.14,0,3.08-1.31,3.08-2.51a2.13,2.13,0,0,0-.55-1.44,3.26,3.26,0,0,0-1.74-.88l-.86-.19c-.91-.2-1.72-.43-1.72-1.32,0-1.22,1.28-1.38,1.9-1.38M44.74,24.85a6,6,0,0,0,4.75-3.23,5.74,5.74,0,0,0,.44-2.35,5.72,5.72,0,0,0-4.2-5.65A23,23,0,0,0,39.4,13H30V37.36H40.25c2.79,0,4.75-.1,6.58-.89a6.48,6.48,0,0,0,4-5.9,5.41,5.41,0,0,0-1.35-3.65c-1.34-1.52-3.3-1.83-4.78-2.07m-9-7.27h5c1.17,0,3.2.1,3.2,2.44,0,2.52-2.24,2.58-3.61,2.62H35.77ZM40,33H35.77V27.06H41c1.24,0,3.65.07,3.65,3S42,32.91,40,33M59.48,19.34H54.32v18h5.31V27.23c0-2.28.75-2.65,3.3-3.1l1.76-.27V19.16a8.36,8.36,0,0,0-5.2,2.07Zm17-.51c-6.9-.38-10.38,4-10.38,9.51,0,6.65,4.62,9.54,9.68,9.54,7,0,9.65-5,9.65-9.54,0-3.27-1.61-9.1-9-9.51m-.69,14.84c-3,0-4.34-2.51-4.34-5.37a6.44,6.44,0,0,1,.9-3.51A3.56,3.56,0,0,1,75.44,23a3.84,3.84,0,0,1,3.1,1A6.08,6.08,0,0,1,80,28.54c0,2.83-1.41,5.13-4.27,5.13m31.19-5.34c0-3.27-1.62-9.1-9-9.51-6.9-.38-10.38,4-10.38,9.51,0,6.65,4.62,9.54,9.69,9.54,7,0,9.64-5,9.64-9.54m-14,0a6.5,6.5,0,0,1,.91-3.51A3.56,3.56,0,0,1,97,23a3.84,3.84,0,0,1,3.1,1,6.06,6.06,0,0,1,1.49,4.51c0,2.83-1.42,5.13-4.27,5.13s-4.36-2.51-4.36-5.37m35.61,9.07-7-11.58,6.21-6.41h-6.38l-5.82,6.17V13h-5.2V37.36h5.17V31.75l2.28-2.13,4.61,7.75Zm2.75,0h5.28V23h3.51V19.79h-3.54c0-2.41.06-2.83,2.06-2.83h1.27V13a24.92,24.92,0,0,0-3.16-.31c-2.49,0-4,.93-4.64,1.82a5.26,5.26,0,0,0-.75,3.07v2.21h-2.86V23h2.83ZM148,13h-5.23v4.1H148Zm0,6.34h-5.23v18H148ZM160.6,38a9.86,9.86,0,0,0,6.78-2.55,14.12,14.12,0,0,0,2.17-2.7l-4-2c-.65,1.27-1.65,3.17-4.55,3.17s-4.14-2.24-4.1-4.49h12.85c-.07-2-.2-5.54-2.55-8.06a8.69,8.69,0,0,0-6.47-2.59c-7.1,0-9.24,5.58-9.24,9.93,0,5.89,3.76,9.3,9.11,9.3M158,23.75a3.67,3.67,0,0,1,2.69-1.17,3.72,3.72,0,0,1,2.58,1,4.25,4.25,0,0,1,1,2.55h-7.35A4.72,4.72,0,0,1,158,23.75M178.14,13h-5.32V37.36h5.32Zm15.74,0v7.68a7.33,7.33,0,0,0-4.75-1.83c-3.62,0-7.48,2.79-7.48,9.59,0,1.17,0,4.79,2.62,7.3a7.29,7.29,0,0,0,5.07,2.07,6.39,6.39,0,0,0,4.86-2.17v1.68H199V13ZM192.13,33.4a3.17,3.17,0,0,1-1.73.56c-2.69,0-3.37-3.07-3.37-5.58,0-.8,0-5.52,3.75-5.52a2.83,2.83,0,0,1,2.07,1.07C194,25.3,194,27.54,194,28.37c0,1,0,3.75-1.86,5"/></svg>