<svg id="Camada_1" data-name="Camada 1" xmlns="http://www.w3.org/2000/svg" viewBox="0 0 229 63"><defs><style>.cls-1{fill:#fff;fill-rule:evenodd;}</style></defs><title>Icones</title><path class="cls-1" d="M68.9,27h5.54c4.54,0,9.12.47,9.12,5.72s-4.22,7.78-9.21,7.78H71.52L70,47.76H64.43L68.9,27Zm3.46,9.57h1.48c2.19,0,4.2-.76,4.2-3.24,0-2-1.38-2.41-2.86-2.41H73.53l-1.18,5.65Z"/><polygon class="cls-1" points="85.8 27 100.4 27 99.58 30.93 90.47 30.93 89.51 35.22 98.17 35.22 97.31 39.15 88.67 39.15 87.66 43.83 97.16 43.83 96.35 47.76 81.33 47.76 85.8 27 85.8 27"/><path class="cls-1" d="M102.25,27h6.62c4,0,8.72.14,8.72,5.3,0,3.66-2.86,4.92-6,5.32v.05c1.65.14,2.17,2.35,2.48,3.69l1.48,6.39H110l-1.07-5.28c-.54-2.71-.71-2.91-3.22-2.91h-.58l-1.66,8.2H97.87L102.25,27Zm3.66,8.63h1.88c2.41,0,4.27-.6,4.27-2.57,0-1.48-.89-2.1-2.55-2.14h-2.64l-1,4.7Z"/><path class="cls-1" d="M70.27,19.68l1.14-5.41H28s-5.9-.31-8.9,2.42c-3.4,3.08-3.69,5.84-3.69,5.84L12.66,36.25S11.32,40.76,14,43.87a9.58,9.58,0,0,0,6.28,3.62c.29,0,1.36,0,1.36,0h9.9s-3.49-2-3.82-5.19H22.45s-2.42.09-3.56-1.09-1.34-1.9-1-4.2,2.48-12.32,2.48-12.32a9.29,9.29,0,0,1,1.77-3.62,5.33,5.33,0,0,1,4-1.39c1.66.05,44.15,0,44.15,0Z"/><path class="cls-1" d="M136,31.78a9.94,9.94,0,0,0-5.18-1.25c-5.57,0-7.8,3.93-7.8,7.85,0,3.69,2.35,5.43,5.68,5.43A11.7,11.7,0,0,0,134,42.66l-.6,4.45a19.85,19.85,0,0,1-5.54.81c-6.7,0-10.53-4-10.53-9.68,0-6.89,4.85-11.8,12.65-11.8a20.69,20.69,0,0,1,7.35,1.09L136,31.78Z"/><path class="cls-1" d="M146,26.81h7l3.38,20.75h-5.59l-.56-4.42h-8.07l-2.46,4.42h-6L146,26.81Zm2.77,4.29h-.05l-4.42,8.12h5.36l-.89-8.12Z"/><path class="cls-1" d="M160.87,26.81h6.62c4,0,8.72.14,8.72,5.3,0,3.66-2.86,4.94-6,5.32v.05c1.65.14,2.17,2.35,2.48,3.69l1.48,6.39H168.6l-1.07-5.28c-.54-2.71-.71-2.91-3.2-2.91h-.6l-1.66,8.2h-5.57l4.38-20.75Zm3.66,8.63h1.88c2.41,0,4.27-.6,4.27-2.57,0-1.48-.89-2.1-2.55-2.14h-2.64l-1,4.7Z"/><path class="cls-1" d="M195.72,31.69a13.86,13.86,0,0,0-6-1.14c-5.57,0-7.8,3.93-7.8,7.85,0,3.69,2.35,5.41,5.18,5.41a7.55,7.55,0,0,0,2.21-.34l.92-4.11h-3.31l.81-3.93h8.7L194,47a30.06,30.06,0,0,1-7.24.92c-6.7,0-10.53-3.94-10.53-9.66,0-6.89,4.14-11.82,13.77-11.82a26.19,26.19,0,0,1,6.95,1l-1.19,4.23Z"/><path class="cls-1" d="M206.31,26.81h7l3.38,20.75h-5.59l-.56-4.42h-8.07L200,47.56h-6l12.34-20.75Zm2.77,4.29H209l-4.42,8.12H210l-.89-8.12Z"/><polygon class="cls-1" points="158.28 50.75 160.4 50.75 159.1 57.06 162.39 57.06 162.07 58.6 156.64 58.6 158.28 50.75 158.28 50.75"/><path class="cls-1" d="M167,58.74c-2.55,0-3.49-1.59-3.49-3.2,0-3,1.57-4.92,4.6-4.92,2.55,0,3.49,1.59,3.49,3.2,0,3-1.57,4.92-4.6,4.92Zm1-6.57c-1.63,0-2.3,1.88-2.3,3.2,0,1,.36,1.81,1.47,1.81,1.61,0,2.28-1.88,2.28-3.2,0-1-.36-1.81-1.45-1.81Z"/><path class="cls-1" d="M179.66,52.59a5.29,5.29,0,0,0-2.28-.42,2.77,2.77,0,0,0-2.95,3,1.86,1.86,0,0,0,2,2,2.74,2.74,0,0,0,.83-.13l.36-1.56h-1.25l.29-1.48h3.31L179,58.4a11.52,11.52,0,0,1-2.73.34c-2.53,0-4-1.5-4-3.66,0-2.62,1.56-4.47,5.21-4.47a10.32,10.32,0,0,1,2.62.38l-.45,1.59Z"/><path class="cls-1" d="M182.24,50.75h2.12l-1.63,7.85h-2.12l1.63-7.85Zm.33-1.41,2.21-.29-.36,1.07-2.12.2.27-1Z"/><path class="cls-1" d="M190.71,52.54a3.83,3.83,0,0,0-1.74-.36c-.83,0-1.5.11-1.5.74,0,1.12,3.06.71,3.06,3.09,0,2.17-2,2.73-3.84,2.73a9.45,9.45,0,0,1-2.44-.4l.51-1.61a4.08,4.08,0,0,0,1.94.45c.65,0,1.66-.13,1.66-.94,0-1.25-3-.78-3-3,0-2,1.77-2.62,3.49-2.62a6.22,6.22,0,0,1,2.41.34l-.51,1.57Z"/><polygon class="cls-1" points="193.86 52.3 191.91 52.3 192.25 50.75 198.29 50.75 197.95 52.3 196 52.3 194.66 58.6 192.52 58.6 193.86 52.3 193.86 52.3"/><polygon class="cls-1" points="199.22 50.75 201.33 50.75 199.71 58.6 197.59 58.6 199.22 50.75 199.22 50.75"/><path class="cls-1" d="M208.86,52.65a3.67,3.67,0,0,0-2-.47,2.77,2.77,0,0,0-2.95,3,1.91,1.91,0,0,0,2.15,2,4.54,4.54,0,0,0,2-.43l-.22,1.68a7.9,7.9,0,0,1-2.1.31c-2.53,0-4-1.5-4-3.66,0-2.62,1.83-4.47,4.78-4.47a7.74,7.74,0,0,1,2.79.42l-.51,1.61Z"/><path class="cls-1" d="M212.77,50.75h2.62l1.28,7.85h-2.12l-.2-1.66H211.3l-.94,1.66H208.1l4.67-7.85Zm1,1.63h0l-1.68,3.08h2l-.33-3.08Z"/><path class="cls-1" d="M57.7,26.43c-6,0-11.92,4.81-13.3,10.73-.07.27-.13.47-.2.76a7.19,7.19,0,0,1-6,4.47c-2.91,0-4.94-2-4.27-5.21A6.79,6.79,0,0,1,40.14,32a4,4,0,0,1,4.42,3.49,3.55,3.55,0,0,1,.11-.42,15.32,15.32,0,0,1,3.94-5.41,8.62,8.62,0,0,0-7-3.2c-6,0-11.92,4.8-13.3,10.73s2.33,10.73,8.31,10.73a14.48,14.48,0,0,0,12.5-8.25,9.9,9.9,0,0,0,.52-1.36c.05-.2.29-1.18.29-1.18a7,7,0,0,1,6.24-5.16,4.1,4.1,0,0,1,4.31,5.25,7.05,7.05,0,0,1-6.21,5.19,4,4,0,0,1-4.4-3.51c0,.07,0,.07,0,.14a17.16,17.16,0,0,1-4.11,5.7,8.51,8.51,0,0,0,6.93,3.17c6,0,11.92-4.8,13.3-10.73S63.67,26.43,57.7,26.43Z"/></svg>